{
	"asset":{
		"generator":"Khronos glTF Blender I/O v4.5.47",
		"version":"2.0"
	},
	"extensionsUsed":[
		"KHR_materials_clearcoat",
		"KHR_materials_specular",
		"KHR_materials_ior"
	],
	"scene":0,
	"scenes":[
		{
			"name":"Scene",
			"nodes":[
				0
			]
		}
	],
	"nodes":[
		{
			"mesh":0,
			"name":"arm.001",
			"scale":[
				2.0964953899383545,
				2.0964956283569336,
				2.0964956283569336
			],
			"translation":[
				1.5336837768554688,
				1.4706639051437378,
				0
			]
		}
	],
	"materials":[
		{
			"doubleSided":true,
			"name":"flesh.002",
			"pbrMetallicRoughness":{
				"baseColorTexture":{
					"index":0
				},
				"metallicFactor":0,
				"roughnessFactor":0.5
			}
		},
		{
			"doubleSided":true,
			"extensions":{
				"KHR_materials_clearcoat":{
					"clearcoatFactor":0.25,
					"clearcoatRoughnessFactor":0.09969697147607803
				},
				"KHR_materials_specular":{
					"specularColorFactor":[
						2.0,
						2.0,
						2.0
					]
				},
				"KHR_materials_ior":{
					"ior":1.4500000476837158
				}
			},
			"name":"gunmetal",
			"pbrMetallicRoughness":{
				"baseColorFactor":[
					0.11106318980455399,
					0.11106318980455399,
					0.11106318980455399,
					1
				],
				"roughnessFactor":0.3808201551437378
			}
		},
		{
			"doubleSided":true,
			"name":"stockwood",
			"pbrMetallicRoughness":{
				"baseColorTexture":{
					"index":1
				},
				"metallicFactor":0,
				"roughnessFactor":0.5
			}
		},
		{
			"doubleSided":true,
			"name":"gunmetal2.light",
			"pbrMetallicRoughness":{
				"baseColorFactor":[
					0.2237415313720703,
					0.2237415313720703,
					0.2237415313720703,
					1
				],
				"roughnessFactor":0.33233532309532166
			}
		}
	],
	"meshes":[
		{
			"name":"Cube.002",
			"primitives":[
				{
					"attributes":{
						"POSITION":0,
						"NORMAL":1,
						"TEXCOORD_0":2
					},
					"indices":3,
					"material":0
				},
				{
					"attributes":{
						"POSITION":4,
						"NORMAL":5,
						"TEXCOORD_0":6
					},
					"indices":7,
					"material":1
				},
				{
					"attributes":{
						"POSITION":8,
						"NORMAL":9,
						"TEXCOORD_0":10
					},
					"indices":11,
					"material":2
				},
				{
					"attributes":{
						"POSITION":12,
						"NORMAL":13,
						"TEXCOORD_0":14
					},
					"indices":15,
					"material":3
				}
			]
		}
	],
	"textures":[
		{
			"sampler":0,
			"source":0
		},
		{
			"sampler":0,
			"source":1
		}
	],
	"images":[
		{
			"mimeType":"image/png",
			"name":"gunflesh",
			"uri":"gunflesh.png"
		},
		{
			"mimeType":"image/png",
			"name":"stockwood2",
			"uri":"stockwood2.png"
		}
	],
	"accessors":[
		{
			"bufferView":0,
			"componentType":5126,
			"count":904,
			"max":[
				1.2397749423980713,
				0.42613109946250916,
				1.8515212535858154
			],
			"min":[
				-0.871611475944519,
				-0.4787379503250122,
				-3.746243715286255
			],
			"type":"VEC3"
		},
		{
			"bufferView":1,
			"componentType":5126,
			"count":904,
			"type":"VEC3"
		},
		{
			"bufferView":2,
			"componentType":5126,
			"count":904,
			"type":"VEC2"
		},
		{
			"bufferView":3,
			"componentType":5123,
			"count":4224,
			"type":"SCALAR"
		},
		{
			"bufferView":4,
			"componentType":5126,
			"count":366,
			"max":[
				0.15319178998470306,
				0.4811101257801056,
				2.7436227798461914
			],
			"min":[
				-0.05479520559310913,
				-0.05306311324238777,
				-1.241044282913208
			],
			"type":"VEC3"
		},
		{
			"bufferView":5,
			"componentType":5126,
			"count":366,
			"type":"VEC3"
		},
		{
			"bufferView":6,
			"componentType":5126,
			"count":366,
			"type":"VEC2"
		},
		{
			"bufferView":7,
			"componentType":5123,
			"count":1704,
			"type":"SCALAR"
		},
		{
			"bufferView":8,
			"componentType":5126,
			"count":1128,
			"max":[
				0.15237946808338165,
				0.4421367943286896,
				1.8809977769851685
			],
			"min":[
				-0.05218089371919632,
				-0.4106169044971466,
				-2.8369150161743164
			],
			"type":"VEC3"
		},
		{
			"bufferView":9,
			"componentType":5126,
			"count":1128,
			"type":"VEC3"
		},
		{
			"bufferView":10,
			"componentType":5126,
			"count":1128,
			"type":"VEC2"
		},
		{
			"bufferView":11,
			"componentType":5123,
			"count":4896,
			"type":"SCALAR"
		},
		{
			"bufferView":12,
			"componentType":5126,
			"count":282,
			"max":[
				0.09254352748394012,
				0.29754021763801575,
				2.7449569702148438
			],
			"min":[
				-0.040481872856616974,
				-0.06798775494098663,
				-1.1373804807662964
			],
			"type":"VEC3"
		},
		{
			"bufferView":13,
			"componentType":5126,
			"count":282,
			"type":"VEC3"
		},
		{
			"bufferView":14,
			"componentType":5126,
			"count":282,
			"type":"VEC2"
		},
		{
			"bufferView":15,
			"componentType":5123,
			"count":1272,
			"type":"SCALAR"
		}
	],
	"bufferViews":[
		{
			"buffer":0,
			"byteLength":10848,
			"byteOffset":0,
			"target":34962
		},
		{
			"buffer":0,
			"byteLength":10848,
			"byteOffset":10848,
			"target":34962
		},
		{
			"buffer":0,
			"byteLength":7232,
			"byteOffset":21696,
			"target":34962
		},
		{
			"buffer":0,
			"byteLength":8448,
			"byteOffset":28928,
			"target":34963
		},
		{
			"buffer":0,
			"byteLength":4392,
			"byteOffset":37376,
			"target":34962
		},
		{
			"buffer":0,
			"byteLength":4392,
			"byteOffset":41768,
			"target":34962
		},
		{
			"buffer":0,
			"byteLength":2928,
			"byteOffset":46160,
			"target":34962
		},
		{
			"buffer":0,
			"byteLength":3408,
			"byteOffset":49088,
			"target":34963
		},
		{
			"buffer":0,
			"byteLength":13536,
			"byteOffset":52496,
			"target":34962
		},
		{
			"buffer":0,
			"byteLength":13536,
			"byteOffset":66032,
			"target":34962
		},
		{
			"buffer":0,
			"byteLength":9024,
			"byteOffset":79568,
			"target":34962
		},
		{
			"buffer":0,
			"byteLength":9792,
			"byteOffset":88592,
			"target":34963
		},
		{
			"buffer":0,
			"byteLength":3384,
			"byteOffset":98384,
			"target":34962
		},
		{
			"buffer":0,
			"byteLength":3384,
			"byteOffset":101768,
			"target":34962
		},
		{
			"buffer":0,
			"byteLength":2256,
			"byteOffset":105152,
			"target":34962
		},
		{
			"buffer":0,
			"byteLength":2544,
			"byteOffset":107408,
			"target":34963
		}
	],
	"samplers":[
		{
			"magFilter":9729,
			"minFilter":9987
		}
	],
	"buffers":[
		{
			"byteLength":109952,
			"uri":"player1test.bin"
		}
	]
}
