{
	"asset":{
		"generator":"Khronos glTF Blender I/O v4.2.57",
		"version":"2.0"
	},
	"extensionsUsed":[
		"KHR_materials_specular",
		"KHR_materials_ior"
	],
	"scene":0,
	"scenes":[
		{
			"name":"Scene",
			"nodes":[
				0
			]
		}
	],
	"nodes":[
		{
			"mesh":0,
			"name":"pig_Cube.004",
			"rotation":[
				-0.15279754996299744,
				0.02458013966679573,
				-0.15691189467906952,
				0.9754114151000977
			],
			"translation":[
				0,
				0.5141244530677795,
				0
			]
		}
	],
	"animations":[
		{
			"channels":[
				{
					"sampler":0,
					"target":{
						"node":0,
						"path":"translation"
					}
				},
				{
					"sampler":1,
					"target":{
						"node":0,
						"path":"rotation"
					}
				},
				{
					"sampler":2,
					"target":{
						"node":0,
						"path":"scale"
					}
				}
			],
			"name":"pigwalk2",
			"samplers":[
				{
					"input":4,
					"interpolation":"STEP",
					"output":5
				},
				{
					"input":6,
					"interpolation":"LINEAR",
					"output":7
				},
				{
					"input":4,
					"interpolation":"STEP",
					"output":8
				}
			]
		}
	],
	"materials":[
		{
			"doubleSided":true,
			"extensions":{
				"KHR_materials_specular":{
					"specularColorFactor":[
						2.0,
						2.0,
						2.0
					]
				},
				"KHR_materials_ior":{
					"ior":1.4500000476837158
				}
			},
			"name":"body",
			"pbrMetallicRoughness":{
				"baseColorTexture":{
					"index":0
				},
				"metallicFactor":0,
				"roughnessFactor":0.1911449283361435
			}
		}
	],
	"meshes":[
		{
			"name":"pig_Cube.004",
			"primitives":[
				{
					"attributes":{
						"POSITION":0,
						"NORMAL":1,
						"TEXCOORD_0":2
					},
					"indices":3,
					"material":0
				}
			]
		}
	],
	"textures":[
		{
			"sampler":0,
			"source":0
		}
	],
	"images":[
		{
			"mimeType":"image/png",
			"name":"pigdiff2",
			"uri":"pigdiff2.png"
		}
	],
	"accessors":[
		{
			"bufferView":0,
			"componentType":5126,
			"count":2084,
			"max":[
				1.9020709991455078,
				1.7699190378189087,
				2.2707109451293945
			],
			"min":[
				-1.904121994972229,
				-1.4221309423446655,
				-3.216478109359741
			],
			"type":"VEC3"
		},
		{
			"bufferView":1,
			"componentType":5126,
			"count":2084,
			"type":"VEC3"
		},
		{
			"bufferView":2,
			"componentType":5126,
			"count":2084,
			"type":"VEC2"
		},
		{
			"bufferView":3,
			"componentType":5123,
			"count":11880,
			"type":"SCALAR"
		},
		{
			"bufferView":4,
			"componentType":5126,
			"count":2,
			"max":[
				1
			],
			"min":[
				0.041666666666666664
			],
			"type":"SCALAR"
		},
		{
			"bufferView":5,
			"componentType":5126,
			"count":2,
			"type":"VEC3"
		},
		{
			"bufferView":6,
			"componentType":5126,
			"count":24,
			"max":[
				1
			],
			"min":[
				0.041666666666666664
			],
			"type":"SCALAR"
		},
		{
			"bufferView":7,
			"componentType":5126,
			"count":24,
			"type":"VEC4"
		},
		{
			"bufferView":8,
			"componentType":5126,
			"count":2,
			"type":"VEC3"
		}
	],
	"bufferViews":[
		{
			"buffer":0,
			"byteLength":25008,
			"byteOffset":0,
			"target":34962
		},
		{
			"buffer":0,
			"byteLength":25008,
			"byteOffset":25008,
			"target":34962
		},
		{
			"buffer":0,
			"byteLength":16672,
			"byteOffset":50016,
			"target":34962
		},
		{
			"buffer":0,
			"byteLength":23760,
			"byteOffset":66688,
			"target":34963
		},
		{
			"buffer":0,
			"byteLength":8,
			"byteOffset":90448
		},
		{
			"buffer":0,
			"byteLength":24,
			"byteOffset":90456
		},
		{
			"buffer":0,
			"byteLength":96,
			"byteOffset":90480
		},
		{
			"buffer":0,
			"byteLength":384,
			"byteOffset":90576
		},
		{
			"buffer":0,
			"byteLength":24,
			"byteOffset":90960
		}
	],
	"samplers":[
		{
			"magFilter":9729,
			"minFilter":9987
		}
	],
	"buffers":[
		{
			"byteLength":90984,
			"uri":"pigwalking2.bin"
		}
	]
}
