{
	"asset":{
		"generator":"Khronos glTF Blender I/O v4.2.57",
		"version":"2.0"
	},
	"extensionsUsed":[
		"KHR_materials_specular",
		"KHR_materials_ior"
	],
	"scene":0,
	"scenes":[
		{
			"name":"Scene",
			"nodes":[
				0
			]
		}
	],
	"nodes":[
		{
			"mesh":0,
			"name":"pig_Cube.004",
			"rotation":[
				0.7071068286895752,
				0,
				0,
				0.7071068286895752
			]
		}
	],
	"animations":[
		{
			"channels":[
				{
					"sampler":0,
					"target":{
						"node":0,
						"path":"translation"
					}
				},
				{
					"sampler":1,
					"target":{
						"node":0,
						"path":"rotation"
					}
				},
				{
					"sampler":2,
					"target":{
						"node":0,
						"path":"scale"
					}
				}
			],
			"name":"pigwalk",
			"samplers":[
				{
					"input":4,
					"interpolation":"LINEAR",
					"output":5
				},
				{
					"input":4,
					"interpolation":"LINEAR",
					"output":6
				},
				{
					"input":7,
					"interpolation":"STEP",
					"output":8
				}
			]
		}
	],
	"materials":[
		{
			"doubleSided":true,
			"extensions":{
				"KHR_materials_specular":{
					"specularColorFactor":[
						2.0,
						2.0,
						2.0
					]
				},
				"KHR_materials_ior":{
					"ior":1.4500000476837158
				}
			},
			"name":"body",
			"pbrMetallicRoughness":{
				"baseColorTexture":{
					"index":0
				},
				"metallicFactor":0,
				"roughnessFactor":0.3934176564216614
			}
		}
	],
	"meshes":[
		{
			"name":"pig_Cube.004",
			"primitives":[
				{
					"attributes":{
						"POSITION":0,
						"NORMAL":1,
						"TEXCOORD_0":2
					},
					"indices":3,
					"material":0
				}
			]
		}
	],
	"textures":[
		{
			"sampler":0,
			"source":0
		}
	],
	"images":[
		{
			"mimeType":"image/png",
			"name":"pigdiff",
			"uri":"pigdiff.png"
		}
	],
	"accessors":[
		{
			"bufferView":0,
			"componentType":5126,
			"count":2075,
			"max":[
				1.9020709991455078,
				1.7699190378189087,
				2.2707109451293945
			],
			"min":[
				-1.904121994972229,
				-1.4221309423446655,
				-3.216478109359741
			],
			"type":"VEC3"
		},
		{
			"bufferView":1,
			"componentType":5126,
			"count":2075,
			"type":"VEC3"
		},
		{
			"bufferView":2,
			"componentType":5126,
			"count":2075,
			"type":"VEC2"
		},
		{
			"bufferView":3,
			"componentType":5123,
			"count":11880,
			"type":"SCALAR"
		},
		{
			"bufferView":4,
			"componentType":5126,
			"count":16,
			"max":[
				0.6666666666666666
			],
			"min":[
				0.041666666666666664
			],
			"type":"SCALAR"
		},
		{
			"bufferView":5,
			"componentType":5126,
			"count":16,
			"type":"VEC3"
		},
		{
			"bufferView":6,
			"componentType":5126,
			"count":16,
			"type":"VEC4"
		},
		{
			"bufferView":7,
			"componentType":5126,
			"count":2,
			"max":[
				0.6666666666666666
			],
			"min":[
				0.041666666666666664
			],
			"type":"SCALAR"
		},
		{
			"bufferView":8,
			"componentType":5126,
			"count":2,
			"type":"VEC3"
		}
	],
	"bufferViews":[
		{
			"buffer":0,
			"byteLength":24900,
			"byteOffset":0,
			"target":34962
		},
		{
			"buffer":0,
			"byteLength":24900,
			"byteOffset":24900,
			"target":34962
		},
		{
			"buffer":0,
			"byteLength":16600,
			"byteOffset":49800,
			"target":34962
		},
		{
			"buffer":0,
			"byteLength":23760,
			"byteOffset":66400,
			"target":34963
		},
		{
			"buffer":0,
			"byteLength":64,
			"byteOffset":90160
		},
		{
			"buffer":0,
			"byteLength":192,
			"byteOffset":90224
		},
		{
			"buffer":0,
			"byteLength":256,
			"byteOffset":90416
		},
		{
			"buffer":0,
			"byteLength":8,
			"byteOffset":90672
		},
		{
			"buffer":0,
			"byteLength":24,
			"byteOffset":90680
		}
	],
	"samplers":[
		{
			"magFilter":9729,
			"minFilter":9987
		}
	],
	"buffers":[
		{
			"byteLength":90704,
			"uri":"pigwalking1.bin"
		}
	]
}
