{
	"asset":{
		"generator":"Khronos glTF Blender I/O v4.5.47",
		"version":"2.0"
	},
	"extensionsUsed":[
		"KHR_materials_clearcoat",
		"KHR_materials_specular",
		"KHR_materials_ior"
	],
	"scene":0,
	"scenes":[
		{
			"name":"Scene",
			"nodes":[
				0
			]
		}
	],
	"nodes":[
		{
			"mesh":0,
			"name":"arm.001",
			"rotation":[
				0.4108888506889343,
				0.16354584693908691,
				-0.5754740238189697,
				0.6879336833953857
			],
			"scale":[
				2.0964953899383545,
				2.0964956283569336,
				2.0964956283569336
			],
			"translation":[
				3.771566867828369,
				1.4706639051437378,
				0
			]
		}
	],
	"materials":[
		{
			"doubleSided":true,
			"name":"flesh.002",
			"pbrMetallicRoughness":{
				"baseColorTexture":{
					"index":0
				},
				"metallicFactor":0,
				"roughnessFactor":0.5
			}
		},
		{
			"doubleSided":true,
			"extensions":{
				"KHR_materials_clearcoat":{
					"clearcoatFactor":0.25,
					"clearcoatRoughnessFactor":0.09969697147607803
				},
				"KHR_materials_specular":{
					"specularColorFactor":[
						2.0,
						2.0,
						2.0
					]
				},
				"KHR_materials_ior":{
					"ior":1.4500000476837158
				}
			},
			"name":"gunmetal",
			"pbrMetallicRoughness":{
				"baseColorFactor":[
					0.11106318980455399,
					0.11106318980455399,
					0.11106318980455399,
					1
				],
				"roughnessFactor":0.3808201551437378
			}
		},
		{
			"doubleSided":true,
			"name":"stockwood",
			"pbrMetallicRoughness":{
				"baseColorTexture":{
					"index":1
				},
				"metallicFactor":0,
				"roughnessFactor":0.5
			}
		},
		{
			"doubleSided":true,
			"name":"gunmetal2.light",
			"pbrMetallicRoughness":{
				"baseColorFactor":[
					0.2237415313720703,
					0.2237415313720703,
					0.2237415313720703,
					1
				],
				"roughnessFactor":0.33233532309532166
			}
		}
	],
	"meshes":[
		{
			"name":"Cube.002",
			"primitives":[
				{
					"attributes":{
						"POSITION":0,
						"NORMAL":1,
						"TEXCOORD_0":2
					},
					"indices":3,
					"material":0
				},
				{
					"attributes":{
						"POSITION":4,
						"NORMAL":5,
						"TEXCOORD_0":6
					},
					"indices":7,
					"material":1
				},
				{
					"attributes":{
						"POSITION":8,
						"NORMAL":9,
						"TEXCOORD_0":10
					},
					"indices":11,
					"material":2
				},
				{
					"attributes":{
						"POSITION":12,
						"NORMAL":13,
						"TEXCOORD_0":14
					},
					"indices":15,
					"material":3
				}
			]
		}
	],
	"textures":[
		{
			"sampler":0,
			"source":0
		},
		{
			"sampler":0,
			"source":1
		}
	],
	"images":[
		{
			"mimeType":"image/png",
			"name":"fleshtubetx",
			"uri":"fleshtubetx.png"
		},
		{
			"mimeType":"image/jpeg",
			"name":"Wood-0685",
			"uri":"Wood-0685.jpg"
		}
	],
	"accessors":[
		{
			"bufferView":0,
			"componentType":5126,
			"count":904,
			"max":[
				0.7848125696182251,
				1.843636393547058,
				1.4282913208007812
			],
			"min":[
				-1.836476445198059,
				-3.287508964538574,
				-0.35935038328170776
			],
			"type":"VEC3"
		},
		{
			"bufferView":1,
			"componentType":5126,
			"count":904,
			"type":"VEC3"
		},
		{
			"bufferView":2,
			"componentType":5126,
			"count":904,
			"type":"VEC2"
		},
		{
			"bufferView":3,
			"componentType":5123,
			"count":4224,
			"type":"SCALAR"
		},
		{
			"bufferView":4,
			"componentType":5126,
			"count":366,
			"max":[
				0.7633043527603149,
				2.546928882598877,
				0.2717341184616089
			],
			"min":[
				-0.6018462181091309,
				-1.1974629163742065,
				-0.8431075215339661
			],
			"type":"VEC3"
		},
		{
			"bufferView":5,
			"componentType":5126,
			"count":366,
			"type":"VEC3"
		},
		{
			"bufferView":6,
			"componentType":5126,
			"count":366,
			"type":"VEC2"
		},
		{
			"bufferView":7,
			"componentType":5123,
			"count":1704,
			"type":"SCALAR"
		},
		{
			"bufferView":8,
			"componentType":5126,
			"count":1128,
			"max":[
				0.6693445444107056,
				1.7538162469863892,
				1.0114097595214844
			],
			"min":[
				-1.0637705326080322,
				-2.6621742248535156,
				-0.5864624977111816
			],
			"type":"VEC3"
		},
		{
			"bufferView":9,
			"componentType":5126,
			"count":1128,
			"type":"VEC3"
		},
		{
			"bufferView":10,
			"componentType":5126,
			"count":1128,
			"type":"VEC2"
		},
		{
			"bufferView":11,
			"componentType":5123,
			"count":4896,
			"type":"SCALAR"
		},
		{
			"bufferView":12,
			"componentType":5126,
			"count":282,
			"max":[
				0.704688310623169,
				2.5324606895446777,
				0.28671449422836304
			],
			"min":[
				-0.3742356598377228,
				-1.0756075382232666,
				-0.9284114241600037
			],
			"type":"VEC3"
		},
		{
			"bufferView":13,
			"componentType":5126,
			"count":282,
			"type":"VEC3"
		},
		{
			"bufferView":14,
			"componentType":5126,
			"count":282,
			"type":"VEC2"
		},
		{
			"bufferView":15,
			"componentType":5123,
			"count":1272,
			"type":"SCALAR"
		}
	],
	"bufferViews":[
		{
			"buffer":0,
			"byteLength":10848,
			"byteOffset":0,
			"target":34962
		},
		{
			"buffer":0,
			"byteLength":10848,
			"byteOffset":10848,
			"target":34962
		},
		{
			"buffer":0,
			"byteLength":7232,
			"byteOffset":21696,
			"target":34962
		},
		{
			"buffer":0,
			"byteLength":8448,
			"byteOffset":28928,
			"target":34963
		},
		{
			"buffer":0,
			"byteLength":4392,
			"byteOffset":37376,
			"target":34962
		},
		{
			"buffer":0,
			"byteLength":4392,
			"byteOffset":41768,
			"target":34962
		},
		{
			"buffer":0,
			"byteLength":2928,
			"byteOffset":46160,
			"target":34962
		},
		{
			"buffer":0,
			"byteLength":3408,
			"byteOffset":49088,
			"target":34963
		},
		{
			"buffer":0,
			"byteLength":13536,
			"byteOffset":52496,
			"target":34962
		},
		{
			"buffer":0,
			"byteLength":13536,
			"byteOffset":66032,
			"target":34962
		},
		{
			"buffer":0,
			"byteLength":9024,
			"byteOffset":79568,
			"target":34962
		},
		{
			"buffer":0,
			"byteLength":9792,
			"byteOffset":88592,
			"target":34963
		},
		{
			"buffer":0,
			"byteLength":3384,
			"byteOffset":98384,
			"target":34962
		},
		{
			"buffer":0,
			"byteLength":3384,
			"byteOffset":101768,
			"target":34962
		},
		{
			"buffer":0,
			"byteLength":2256,
			"byteOffset":105152,
			"target":34962
		},
		{
			"buffer":0,
			"byteLength":2544,
			"byteOffset":107408,
			"target":34963
		}
	],
	"samplers":[
		{
			"magFilter":9729,
			"minFilter":9987
		}
	],
	"buffers":[
		{
			"byteLength":109952,
			"uri":"player1test.bin"
		}
	]
}
