{
	"asset":{
		"generator":"Khronos glTF Blender I/O v4.5.47",
		"version":"2.0"
	},
	"scene":0,
	"scenes":[
		{
			"name":"Scene",
			"nodes":[
				0
			]
		}
	],
	"nodes":[
		{
			"mesh":0,
			"name":"Cube.002",
			"rotation":[
				0,
				0.7071068286895752,
				0,
				0.7071068286895752
			],
			"scale":[
				0.3620016574859619,
				1.1467361450195312,
				0.8052354454994202
			]
		}
	],
	"animations":[
		{
			"channels":[
				{
					"sampler":0,
					"target":{
						"node":0,
						"path":"translation"
					}
				},
				{
					"sampler":1,
					"target":{
						"node":0,
						"path":"rotation"
					}
				}
			],
			"name":"Cube.002Action",
			"samplers":[
				{
					"input":4,
					"interpolation":"LINEAR",
					"output":5
				},
				{
					"input":4,
					"interpolation":"LINEAR",
					"output":6
				}
			]
		}
	],
	"materials":[
		{
			"doubleSided":true,
			"name":"Material",
			"pbrMetallicRoughness":{
				"baseColorTexture":{
					"index":0
				},
				"metallicFactor":0,
				"roughnessFactor":0.5
			}
		}
	],
	"meshes":[
		{
			"name":"Cube.002",
			"primitives":[
				{
					"attributes":{
						"POSITION":0,
						"NORMAL":1,
						"TEXCOORD_0":2
					},
					"indices":3,
					"material":0
				}
			]
		}
	],
	"textures":[
		{
			"sampler":0,
			"source":0
		}
	],
	"images":[
		{
			"mimeType":"image/jpeg",
			"name":"IMG_20260323_184930_130",
			"uri":"IMG_20260323_184930_130.jpg"
		}
	],
	"accessors":[
		{
			"bufferView":0,
			"componentType":5126,
			"count":155,
			"max":[
				2.9050276279449463,
				1.2088940143585205,
				0.8420032858848572
			],
			"min":[
				-2.9050276279449463,
				-1.2467182874679565,
				-0.35842108726501465
			],
			"type":"VEC3"
		},
		{
			"bufferView":1,
			"componentType":5126,
			"count":155,
			"type":"VEC3"
		},
		{
			"bufferView":2,
			"componentType":5126,
			"count":155,
			"type":"VEC2"
		},
		{
			"bufferView":3,
			"componentType":5123,
			"count":600,
			"type":"SCALAR"
		},
		{
			"bufferView":4,
			"componentType":5126,
			"count":1,
			"max":[
				0
			],
			"min":[
				0
			],
			"type":"SCALAR"
		},
		{
			"bufferView":5,
			"componentType":5126,
			"count":1,
			"type":"VEC3"
		},
		{
			"bufferView":6,
			"componentType":5126,
			"count":1,
			"type":"VEC4"
		}
	],
	"bufferViews":[
		{
			"buffer":0,
			"byteLength":1860,
			"byteOffset":0,
			"target":34962
		},
		{
			"buffer":0,
			"byteLength":1860,
			"byteOffset":1860,
			"target":34962
		},
		{
			"buffer":0,
			"byteLength":1240,
			"byteOffset":3720,
			"target":34962
		},
		{
			"buffer":0,
			"byteLength":1200,
			"byteOffset":4960,
			"target":34963
		},
		{
			"buffer":0,
			"byteLength":4,
			"byteOffset":6160
		},
		{
			"buffer":0,
			"byteLength":12,
			"byteOffset":6164
		},
		{
			"buffer":0,
			"byteLength":16,
			"byteOffset":6176
		}
	],
	"samplers":[
		{
			"magFilter":9729,
			"minFilter":9987
		}
	],
	"buffers":[
		{
			"byteLength":6192,
			"uri":"stinktat.bin"
		}
	]
}
