# Blender 4.5.0
# www.blender.org
mtllib testfloor.mtl
o Plane
v -230.643890 0.000000 230.643890
v 230.643890 0.000000 230.643890
v -230.643890 0.000000 -230.643890
v 230.643890 0.000000 -230.643890
v -230.643890 0.000000 0.000000
v 0.000000 0.000000 230.643890
v 230.643890 0.000000 0.000000
v 0.000000 0.000000 -230.643890
v 0.000000 0.000000 0.000000
v -230.643890 0.000000 115.321945
v 115.321945 0.000000 230.643890
v 230.643890 0.000000 -115.321945
v -115.321945 0.000000 -230.643890
v -230.643890 0.000000 -115.321945
v -115.321945 0.000000 230.643890
v 230.643890 0.000000 115.321945
v 115.321945 0.000000 -230.643890
v 0.000000 0.000000 -115.321945
v 0.000000 0.000000 115.321945
v -115.321945 0.000000 0.000000
v 115.321945 0.000000 0.000000
v 115.321945 0.000000 115.321945
v -115.321945 0.000000 115.321945
v -115.321945 0.000000 -115.321945
v 115.321945 0.000000 -115.321945
v -230.643890 0.000000 172.982925
v 172.982925 0.000000 230.643890
v 230.643890 0.000000 -172.982925
v -172.982925 0.000000 -230.643890
v -230.643890 0.000000 -57.660973
v -57.660973 0.000000 230.643890
v 230.643890 0.000000 57.660973
v 57.660973 0.000000 -230.643890
v 0.000000 0.000000 -172.982925
v 0.000000 0.000000 57.660973
v -172.982925 0.000000 0.000000
v 57.660973 0.000000 0.000000
v -230.643890 0.000000 57.660973
v 57.660973 0.000000 230.643890
v 230.643890 0.000000 -57.660973
v -57.660973 0.000000 -230.643890
v -230.643890 0.000000 -172.982925
v -172.982925 0.000000 230.643890
v 230.643890 0.000000 172.982925
v 172.982925 0.000000 -230.643890
v 0.000000 0.000000 -57.660973
v 0.000000 0.000000 172.982925
v -57.660973 0.000000 0.000000
v 172.982925 0.000000 0.000000
v 115.321945 0.000000 57.660973
v 115.321945 0.000000 172.982925
v 57.660973 0.000000 115.321945
v 172.982925 0.000000 115.321945
v -115.321945 0.000000 57.660973
v -115.321945 0.000000 172.982925
v -172.982925 0.000000 115.321945
v -57.660973 0.000000 115.321945
v -115.321945 0.000000 -172.982925
v -115.321945 0.000000 -57.660973
v -172.982925 0.000000 -115.321945
v -57.660973 0.000000 -115.321945
v 115.321945 0.000000 -172.982925
v 115.321945 0.000000 -57.660973
v 57.660973 0.000000 -115.321945
v 172.982925 0.000000 -115.321945
v 172.982925 0.000000 -57.660973
v 57.660973 0.000000 -57.660973
v 57.660973 0.000000 -172.982925
v -57.660973 0.000000 -57.660973
v -172.982925 0.000000 -57.660973
v -172.982925 0.000000 -172.982925
v -57.660973 0.000000 172.982925
v -172.982925 0.000000 172.982925
v -172.982925 0.000000 57.660973
v 172.982925 0.000000 172.982925
v 57.660973 0.000000 172.982925
v 57.660973 0.000000 57.660973
v 172.982925 0.000000 57.660973
v -57.660973 0.000000 57.660973
v -57.660973 0.000000 -172.982925
v 172.982925 0.000000 -172.982925
v -230.643890 0.886757 172.982925
v -230.643890 0.886757 230.643890
v 172.982925 0.886757 230.643890
v 230.643890 0.886757 230.643890
v 230.643890 0.886757 -172.982925
v 230.643890 0.886757 -230.643890
v -172.982925 0.886757 -230.643890
v -230.643890 0.886757 -230.643890
v -230.643890 0.886757 -57.660973
v -230.643890 0.886757 0.000000
v -57.660973 0.886757 230.643890
v 0.000000 0.886757 230.643890
v 230.643890 0.886757 57.660973
v 230.643890 0.886757 0.000000
v 57.660973 0.886757 -230.643890
v 0.000000 0.886757 -230.643890
v 0.000000 0.886757 -172.982925
v 0.000000 0.886757 57.660973
v 0.000000 0.886757 0.000000
v -172.982925 0.886757 0.000000
v 57.660973 0.886757 0.000000
v -230.643890 0.886757 57.660973
v -230.643890 0.886757 115.321945
v 57.660973 0.886757 230.643890
v 115.321945 0.886757 230.643890
v 230.643890 0.886757 -57.660973
v 230.643890 0.886757 -115.321945
v -57.660973 0.886757 -230.643890
v -115.321945 0.886757 -230.643890
v -230.643890 0.886757 -172.982925
v -230.643890 0.886757 -115.321945
v -172.982925 0.886757 230.643890
v -115.321945 0.886757 230.643890
v 230.643890 0.886757 172.982925
v 230.643890 0.886757 115.321945
v 172.982925 0.886757 -230.643890
v 115.321945 0.886757 -230.643890
v 0.000000 0.886757 -57.660973
v 0.000000 0.886757 -115.321945
v 0.000000 0.886757 172.982925
v 0.000000 0.886757 115.321945
v -57.660973 0.886757 0.000000
v -115.321945 0.886757 0.000000
v 172.982925 0.886757 0.000000
v 115.321945 0.886757 0.000000
v 115.321945 0.886757 57.660973
v 115.321945 0.886757 172.982925
v 115.321945 0.886757 115.321945
v 57.660973 0.886757 115.321945
v 172.982925 0.886757 115.321945
v -115.321945 0.886757 57.660973
v -115.321945 0.886757 172.982925
v -115.321945 0.886757 115.321945
v -172.982925 0.886757 115.321945
v -57.660973 0.886757 115.321945
v -115.321945 0.886757 -172.982925
v -115.321945 0.886757 -57.660973
v -115.321945 0.886757 -115.321945
v -172.982925 0.886757 -115.321945
v -57.660973 0.886757 -115.321945
v 115.321945 0.886757 -172.982925
v 115.321945 0.886757 -57.660973
v 115.321945 0.886757 -115.321945
v 57.660973 0.886757 -115.321945
v 172.982925 0.886757 -115.321945
v 172.982925 0.886757 -57.660973
v 57.660973 0.886757 -57.660973
v 57.660973 0.886757 -172.982925
v -57.660973 0.886757 -57.660973
v -172.982925 0.886757 -57.660973
v -172.982925 0.886757 -172.982925
v -57.660973 0.886757 172.982925
v -172.982925 0.886757 172.982925
v -172.982925 0.886757 57.660973
v 172.982925 0.886757 172.982925
v 57.660973 0.886757 172.982925
v 57.660973 0.886757 57.660973
v 172.982925 0.886757 57.660973
v -57.660973 0.886757 57.660973
v -57.660973 0.886757 -172.982925
v 172.982925 0.886757 -172.982925
vn -0.0000 -1.0000 -0.0000
vn -0.0000 1.0000 -0.0000
vn -0.0000 -0.0000 -1.0000
vn 1.0000 -0.0000 -0.0000
vn -1.0000 -0.0000 -0.0000
vn -0.0000 -0.0000 1.0000
vt 2.170146 1.723404
vt 2.445894 1.206827
vt 2.049731 1.327242
vt 0.585498 2.205064
vt 0.861245 1.688487
vt 0.465083 1.808902
vt 0.103838 0.620415
vt 0.379585 0.103838
vt -0.016577 0.224253
vt 1.688487 0.138755
vt 1.964234 -0.377822
vt 1.568072 -0.257407
vt 0.896162 0.379585
vt 1.171910 -0.136992
vt 0.775747 -0.016577
vt 0.655333 -0.412739
vt 0.931080 -0.929316
vt 0.534918 -0.808901
vt 1.447657 -0.653569
vt 1.723404 -1.170146
vt 1.327242 -1.049731
vt -0.688486 0.861245
vt -0.412739 0.344668
vt -0.808901 0.465083
vt -0.929316 0.068921
vt -0.653569 -0.447657
vt -1.049731 -0.327242
vt -0.136992 -0.171909
vt 0.138755 -0.688486
vt -0.257407 -0.568071
vt -0.206827 2.445894
vt 0.068921 1.929316
vt -0.327242 2.049731
vt -0.447657 1.653569
vt -0.171909 1.136992
vt -0.568071 1.257407
vt 0.344668 1.412739
vt 0.620415 0.896162
vt 0.224253 1.016577
vt 1.377822 1.964234
vt 1.653569 1.447657
vt 1.257407 1.568072
vt 1.136992 1.171910
vt 1.412740 0.655333
vt 1.016577 0.775747
vt 1.929317 0.931080
vt 2.205064 0.414503
vt 1.808902 0.534918
vt 1.533154 1.051495
vt 1.292325 0.259170
vt 2.084649 0.018341
vt 0.740830 1.292325
vt 0.500000 0.500000
vt 0.981660 2.084649
vt -0.051494 1.533154
vt -0.292324 0.740830
vt -0.843819 1.773984
vt -0.964234 1.377822
vt -1.084648 0.981660
vt -0.602989 2.566308
vt -0.723404 2.170146
vt -0.533154 -0.051494
vt -0.377822 -0.964234
vt -0.773984 -0.843819
vt 0.018341 -1.084648
vt -1.325478 0.189335
vt -1.445893 -0.206827
vt -1.170146 -0.723404
vt -1.566308 -0.602989
vt -1.205063 0.585498
vt 1.051495 -0.533154
vt 1.206827 -1.445893
vt 0.810665 -1.325478
vt 1.602989 -1.566308
vt 0.259170 -0.292324
vt 0.414503 -1.205063
vt 1.843819 -0.773984
vt 0.189335 2.325479
vt 1.773984 1.843819
vt 2.325479 0.810665
vt 2.566308 1.602989
s 0
usemtl Material
f 45/1/1 28/2/1 81/3/1
f 41/4/1 34/5/1 80/6/1
f 48/7/1 35/8/1 79/9/1
f 49/10/1 32/11/1 78/12/1
f 37/13/1 50/14/1 77/15/1
f 52/16/1 51/17/1 76/18/1
f 53/19/1 44/20/1 75/21/1
f 36/22/1 54/23/1 74/24/1
f 56/25/1 55/26/1 73/27/1
f 57/28/1 47/29/1 72/30/1
f 29/31/1 58/32/1 71/33/1
f 60/34/1 59/35/1 70/36/1
f 61/37/1 46/38/1 69/39/1
f 33/40/1 62/41/1 68/42/1
f 64/43/1 63/44/1 67/45/1
f 65/46/1 40/47/1 66/48/1
f 25/49/1 66/48/1 63/44/1
f 63/44/1 49/10/1 21/50/1
f 66/48/1 7/51/1 49/10/1
f 18/52/1 67/45/1 46/38/1
f 46/38/1 37/13/1 9/53/1
f 67/45/1 21/50/1 37/13/1
f 8/54/1 68/42/1 34/5/1
f 34/5/1 64/43/1 18/52/1
f 68/42/1 25/49/1 64/43/1
f 24/55/1 69/39/1 59/35/1
f 59/35/1 48/7/1 20/56/1
f 69/39/1 9/53/1 48/7/1
f 14/57/1 70/36/1 30/58/1
f 30/58/1 36/22/1 5/59/1
f 70/36/1 20/56/1 36/22/1
f 3/60/1 71/33/1 42/61/1
f 42/61/1 60/34/1 14/57/1
f 71/33/1 24/55/1 60/34/1
f 23/62/1 72/30/1 55/26/1
f 55/26/1 31/63/1 15/64/1
f 72/30/1 6/65/1 31/63/1
f 10/66/1 73/27/1 26/67/1
f 26/67/1 43/68/1 1/69/1
f 73/27/1 15/64/1 43/68/1
f 5/59/1 74/24/1 38/70/1
f 38/70/1 56/25/1 10/66/1
f 74/24/1 23/62/1 56/25/1
f 22/71/1 75/21/1 51/17/1
f 51/17/1 27/72/1 11/73/1
f 75/21/1 2/74/1 27/72/1
f 19/75/1 76/18/1 47/29/1
f 47/29/1 39/76/1 6/65/1
f 76/18/1 11/73/1 39/76/1
f 9/53/1 77/15/1 35/8/1
f 35/8/1 52/16/1 19/75/1
f 77/15/1 22/71/1 52/16/1
f 21/50/1 78/12/1 50/14/1
f 50/14/1 53/19/1 22/71/1
f 78/12/1 16/77/1 53/19/1
f 20/56/1 79/9/1 54/23/1
f 54/23/1 57/28/1 23/62/1
f 79/9/1 19/75/1 57/28/1
f 13/78/1 80/6/1 58/32/1
f 58/32/1 61/37/1 24/55/1
f 80/6/1 18/52/1 61/37/1
f 17/79/1 81/3/1 62/41/1
f 62/41/1 65/46/1 25/49/1
f 81/3/1 12/80/1 65/46/1
f 86/2/2 117/1/2 162/3/2
f 98/5/2 109/4/2 161/6/2
f 99/8/2 123/7/2 160/9/2
f 94/11/2 125/10/2 159/12/2
f 127/14/2 102/13/2 158/15/2
f 128/17/2 130/16/2 157/18/2
f 115/20/2 131/19/2 156/21/2
f 132/23/2 101/22/2 155/24/2
f 133/26/2 135/25/2 154/27/2
f 121/29/2 136/28/2 153/30/2
f 137/32/2 88/31/2 152/33/2
f 138/35/2 140/34/2 151/36/2
f 119/38/2 141/37/2 150/39/2
f 142/41/2 96/40/2 149/42/2
f 143/44/2 145/43/2 148/45/2
f 107/47/2 146/46/2 147/48/2
f 147/48/2 144/49/2 143/44/2
f 125/10/2 143/44/2 126/50/2
f 95/51/2 147/48/2 125/10/2
f 148/45/2 120/52/2 119/38/2
f 102/13/2 119/38/2 100/53/2
f 126/50/2 148/45/2 102/13/2
f 149/42/2 97/54/2 98/5/2
f 145/43/2 98/5/2 120/52/2
f 144/49/2 149/42/2 145/43/2
f 150/39/2 139/55/2 138/35/2
f 123/7/2 138/35/2 124/56/2
f 100/53/2 150/39/2 123/7/2
f 151/36/2 112/57/2 90/58/2
f 101/22/2 90/58/2 91/59/2
f 124/56/2 151/36/2 101/22/2
f 152/33/2 89/60/2 111/61/2
f 140/34/2 111/61/2 112/57/2
f 139/55/2 152/33/2 140/34/2
f 153/30/2 134/62/2 133/26/2
f 92/63/2 133/26/2 114/64/2
f 93/65/2 153/30/2 92/63/2
f 154/27/2 104/66/2 82/67/2
f 113/68/2 82/67/2 83/69/2
f 114/64/2 154/27/2 113/68/2
f 155/24/2 91/59/2 103/70/2
f 135/25/2 103/70/2 104/66/2
f 134/62/2 155/24/2 135/25/2
f 156/21/2 129/71/2 128/17/2
f 84/72/2 128/17/2 106/73/2
f 85/74/2 156/21/2 84/72/2
f 157/18/2 122/75/2 121/29/2
f 105/76/2 121/29/2 93/65/2
f 106/73/2 157/18/2 105/76/2
f 158/15/2 100/53/2 99/8/2
f 130/16/2 99/8/2 122/75/2
f 129/71/2 158/15/2 130/16/2
f 159/12/2 126/50/2 127/14/2
f 131/19/2 127/14/2 129/71/2
f 116/77/2 159/12/2 131/19/2
f 160/9/2 124/56/2 132/23/2
f 136/28/2 132/23/2 134/62/2
f 122/75/2 160/9/2 136/28/2
f 161/6/2 110/78/2 137/32/2
f 141/37/2 137/32/2 139/55/2
f 120/52/2 161/6/2 141/37/2
f 162/3/2 118/79/2 142/41/2
f 146/46/2 142/41/2 144/49/2
f 108/80/2 162/3/2 146/46/2
f 13/78/3 109/4/3 41/4/3
f 28/2/4 108/80/4 12/80/4
f 4/81/4 86/2/4 28/2/4
f 42/61/5 89/60/5 3/60/5
f 14/57/5 111/61/5 42/61/5
f 29/31/3 110/78/3 13/78/3
f 3/60/3 88/31/3 29/31/3
f 43/68/6 83/69/6 1/69/6
f 15/64/6 113/68/6 43/68/6
f 30/58/5 112/57/5 14/57/5
f 5/59/5 90/58/5 30/58/5
f 44/20/4 85/74/4 2/74/4
f 16/77/4 115/20/4 44/20/4
f 31/63/6 114/64/6 15/64/6
f 6/65/6 92/63/6 31/63/6
f 45/1/3 87/81/3 4/81/3
f 17/79/3 117/1/3 45/1/3
f 32/11/4 116/77/4 16/77/4
f 7/51/4 94/11/4 32/11/4
f 33/40/3 118/79/3 17/79/3
f 8/54/3 96/40/3 33/40/3
f 38/70/5 91/59/5 5/59/5
f 10/66/5 103/70/5 38/70/5
f 39/76/6 93/65/6 6/65/6
f 11/73/6 105/76/6 39/76/6
f 26/67/5 104/66/5 10/66/5
f 1/69/5 82/67/5 26/67/5
f 40/47/4 95/51/4 7/51/4
f 12/80/4 107/47/4 40/47/4
f 27/72/6 106/73/6 11/73/6
f 2/74/6 84/72/6 27/72/6
f 41/4/3 97/54/3 8/54/3
f 45/1/1 4/81/1 28/2/1
f 41/4/1 8/54/1 34/5/1
f 48/7/1 9/53/1 35/8/1
f 49/10/1 7/51/1 32/11/1
f 37/13/1 21/50/1 50/14/1
f 52/16/1 22/71/1 51/17/1
f 53/19/1 16/77/1 44/20/1
f 36/22/1 20/56/1 54/23/1
f 56/25/1 23/62/1 55/26/1
f 57/28/1 19/75/1 47/29/1
f 29/31/1 13/78/1 58/32/1
f 60/34/1 24/55/1 59/35/1
f 61/37/1 18/52/1 46/38/1
f 33/40/1 17/79/1 62/41/1
f 64/43/1 25/49/1 63/44/1
f 65/46/1 12/80/1 40/47/1
f 25/49/1 65/46/1 66/48/1
f 63/44/1 66/48/1 49/10/1
f 66/48/1 40/47/1 7/51/1
f 18/52/1 64/43/1 67/45/1
f 46/38/1 67/45/1 37/13/1
f 67/45/1 63/44/1 21/50/1
f 8/54/1 33/40/1 68/42/1
f 34/5/1 68/42/1 64/43/1
f 68/42/1 62/41/1 25/49/1
f 24/55/1 61/37/1 69/39/1
f 59/35/1 69/39/1 48/7/1
f 69/39/1 46/38/1 9/53/1
f 14/57/1 60/34/1 70/36/1
f 30/58/1 70/36/1 36/22/1
f 70/36/1 59/35/1 20/56/1
f 3/60/1 29/31/1 71/33/1
f 42/61/1 71/33/1 60/34/1
f 71/33/1 58/32/1 24/55/1
f 23/62/1 57/28/1 72/30/1
f 55/26/1 72/30/1 31/63/1
f 72/30/1 47/29/1 6/65/1
f 10/66/1 56/25/1 73/27/1
f 26/67/1 73/27/1 43/68/1
f 73/27/1 55/26/1 15/64/1
f 5/59/1 36/22/1 74/24/1
f 38/70/1 74/24/1 56/25/1
f 74/24/1 54/23/1 23/62/1
f 22/71/1 53/19/1 75/21/1
f 51/17/1 75/21/1 27/72/1
f 75/21/1 44/20/1 2/74/1
f 19/75/1 52/16/1 76/18/1
f 47/29/1 76/18/1 39/76/1
f 76/18/1 51/17/1 11/73/1
f 9/53/1 37/13/1 77/15/1
f 35/8/1 77/15/1 52/16/1
f 77/15/1 50/14/1 22/71/1
f 21/50/1 49/10/1 78/12/1
f 50/14/1 78/12/1 53/19/1
f 78/12/1 32/11/1 16/77/1
f 20/56/1 48/7/1 79/9/1
f 54/23/1 79/9/1 57/28/1
f 79/9/1 35/8/1 19/75/1
f 13/78/1 41/4/1 80/6/1
f 58/32/1 80/6/1 61/37/1
f 80/6/1 34/5/1 18/52/1
f 17/79/1 45/1/1 81/3/1
f 62/41/1 81/3/1 65/46/1
f 81/3/1 28/2/1 12/80/1
f 86/2/2 87/81/2 117/1/2
f 98/5/2 97/54/2 109/4/2
f 99/8/2 100/53/2 123/7/2
f 94/11/2 95/51/2 125/10/2
f 127/14/2 126/50/2 102/13/2
f 128/17/2 129/71/2 130/16/2
f 115/20/2 116/77/2 131/19/2
f 132/23/2 124/56/2 101/22/2
f 133/26/2 134/62/2 135/25/2
f 121/29/2 122/75/2 136/28/2
f 137/32/2 110/78/2 88/31/2
f 138/35/2 139/55/2 140/34/2
f 119/38/2 120/52/2 141/37/2
f 142/41/2 118/79/2 96/40/2
f 143/44/2 144/49/2 145/43/2
f 107/47/2 108/80/2 146/46/2
f 147/48/2 146/46/2 144/49/2
f 125/10/2 147/48/2 143/44/2
f 95/51/2 107/47/2 147/48/2
f 148/45/2 145/43/2 120/52/2
f 102/13/2 148/45/2 119/38/2
f 126/50/2 143/44/2 148/45/2
f 149/42/2 96/40/2 97/54/2
f 145/43/2 149/42/2 98/5/2
f 144/49/2 142/41/2 149/42/2
f 150/39/2 141/37/2 139/55/2
f 123/7/2 150/39/2 138/35/2
f 100/53/2 119/38/2 150/39/2
f 151/36/2 140/34/2 112/57/2
f 101/22/2 151/36/2 90/58/2
f 124/56/2 138/35/2 151/36/2
f 152/33/2 88/31/2 89/60/2
f 140/34/2 152/33/2 111/61/2
f 139/55/2 137/32/2 152/33/2
f 153/30/2 136/28/2 134/62/2
f 92/63/2 153/30/2 133/26/2
f 93/65/2 121/29/2 153/30/2
f 154/27/2 135/25/2 104/66/2
f 113/68/2 154/27/2 82/67/2
f 114/64/2 133/26/2 154/27/2
f 155/24/2 101/22/2 91/59/2
f 135/25/2 155/24/2 103/70/2
f 134/62/2 132/23/2 155/24/2
f 156/21/2 131/19/2 129/71/2
f 84/72/2 156/21/2 128/17/2
f 85/74/2 115/20/2 156/21/2
f 157/18/2 130/16/2 122/75/2
f 105/76/2 157/18/2 121/29/2
f 106/73/2 128/17/2 157/18/2
f 158/15/2 102/13/2 100/53/2
f 130/16/2 158/15/2 99/8/2
f 129/71/2 127/14/2 158/15/2
f 159/12/2 125/10/2 126/50/2
f 131/19/2 159/12/2 127/14/2
f 116/77/2 94/11/2 159/12/2
f 160/9/2 123/7/2 124/56/2
f 136/28/2 160/9/2 132/23/2
f 122/75/2 99/8/2 160/9/2
f 161/6/2 109/4/2 110/78/2
f 141/37/2 161/6/2 137/32/2
f 120/52/2 98/5/2 161/6/2
f 162/3/2 117/1/2 118/79/2
f 146/46/2 162/3/2 142/41/2
f 108/80/2 86/2/2 162/3/2
f 13/78/3 110/78/3 109/4/3
f 28/2/4 86/2/4 108/80/4
f 4/81/4 87/81/4 86/2/4
f 42/61/5 111/61/5 89/60/5
f 14/57/5 112/57/5 111/61/5
f 29/31/3 88/31/3 110/78/3
f 3/60/3 89/60/3 88/31/3
f 43/68/6 113/68/6 83/69/6
f 15/64/6 114/64/6 113/68/6
f 30/58/5 90/58/5 112/57/5
f 5/59/5 91/59/5 90/58/5
f 44/20/4 115/20/4 85/74/4
f 16/77/4 116/77/4 115/20/4
f 31/63/6 92/63/6 114/64/6
f 6/65/6 93/65/6 92/63/6
f 45/1/3 117/1/3 87/81/3
f 17/79/3 118/79/3 117/1/3
f 32/11/4 94/11/4 116/77/4
f 7/51/4 95/51/4 94/11/4
f 33/40/3 96/40/3 118/79/3
f 8/54/3 97/54/3 96/40/3
f 38/70/5 103/70/5 91/59/5
f 10/66/5 104/66/5 103/70/5
f 39/76/6 105/76/6 93/65/6
f 11/73/6 106/73/6 105/76/6
f 26/67/5 82/67/5 104/66/5
f 1/69/5 83/69/5 82/67/5
f 40/47/4 107/47/4 95/51/4
f 12/80/4 108/80/4 107/47/4
f 27/72/6 84/72/6 106/73/6
f 2/74/6 85/74/6 84/72/6
f 41/4/3 109/4/3 97/54/3
