{
	"asset":{
		"generator":"Khronos glTF Blender I/O v4.5.47",
		"version":"2.0"
	},
	"scene":0,
	"scenes":[
		{
			"name":"Scene",
			"nodes":[
				0
			]
		}
	],
	"nodes":[
		{
			"mesh":0,
			"name":"Plane",
			"scale":[
				50,
				50,
				50
			]
		}
	],
	"animations":[
		{
			"channels":[
				{
					"sampler":0,
					"target":{
						"node":0,
						"path":"scale"
					}
				}
			],
			"name":"PlaneAction",
			"samplers":[
				{
					"input":4,
					"interpolation":"LINEAR",
					"output":5
				}
			]
		}
	],
	"materials":[
		{
			"doubleSided":true,
			"name":"Material",
			"pbrMetallicRoughness":{
				"baseColorTexture":{
					"index":0
				},
				"metallicFactor":0
			}
		}
	],
	"meshes":[
		{
			"name":"Plane",
			"primitives":[
				{
					"attributes":{
						"POSITION":0,
						"NORMAL":1,
						"TEXCOORD_0":2
					},
					"indices":3,
					"material":0
				}
			]
		}
	],
	"textures":[
		{
			"sampler":0,
			"source":0
		}
	],
	"images":[
		{
			"mimeType":"image/png",
			"name":"floorbase",
			"uri":"floorbase.png"
		}
	],
	"accessors":[
		{
			"bufferView":0,
			"componentType":5126,
			"count":81,
			"max":[
				1,
				0,
				1
			],
			"min":[
				-1,
				0,
				-1
			],
			"type":"VEC3"
		},
		{
			"bufferView":1,
			"componentType":5126,
			"count":81,
			"type":"VEC3"
		},
		{
			"bufferView":2,
			"componentType":5126,
			"count":81,
			"type":"VEC2"
		},
		{
			"bufferView":3,
			"componentType":5123,
			"count":384,
			"type":"SCALAR"
		},
		{
			"bufferView":4,
			"componentType":5126,
			"count":1,
			"max":[
				0
			],
			"min":[
				0
			],
			"type":"SCALAR"
		},
		{
			"bufferView":5,
			"componentType":5126,
			"count":1,
			"type":"VEC3"
		}
	],
	"bufferViews":[
		{
			"buffer":0,
			"byteLength":972,
			"byteOffset":0,
			"target":34962
		},
		{
			"buffer":0,
			"byteLength":972,
			"byteOffset":972,
			"target":34962
		},
		{
			"buffer":0,
			"byteLength":648,
			"byteOffset":1944,
			"target":34962
		},
		{
			"buffer":0,
			"byteLength":768,
			"byteOffset":2592,
			"target":34963
		},
		{
			"buffer":0,
			"byteLength":4,
			"byteOffset":3360
		},
		{
			"buffer":0,
			"byteLength":12,
			"byteOffset":3364
		}
	],
	"samplers":[
		{
			"magFilter":9729,
			"minFilter":9987
		}
	],
	"buffers":[
		{
			"byteLength":3376,
			"uri":"testfloor.bin"
		}
	]
}
