{
	"asset":{
		"generator":"Khronos glTF Blender I/O v4.5.47",
		"version":"2.0"
	},
	"extensionsUsed":[
		"KHR_materials_specular",
		"KHR_materials_ior"
	],
	"scene":0,
	"scenes":[
		{
			"name":"Scene",
			"nodes":[
				0,
				1,
				2
			]
		}
	],
	"nodes":[
		{
			"mesh":0,
			"name":"pig",
			"translation":[
				-0.003715913975611329,
				1.4201306104660034,
				0.8873783946037292
			]
		},
		{
			"mesh":1,
			"name":"pig.001",
			"translation":[
				-0.003715913975611329,
				1.4201306104660034,
				0.8873783946037292
			]
		},
		{
			"mesh":2,
			"name":"pig.002",
			"translation":[
				-0.003715913975611329,
				1.4201306104660034,
				0.887378454208374
			]
		}
	],
	"materials":[
		{
			"doubleSided":true,
			"extensions":{
				"KHR_materials_specular":{
					"specularColorFactor":[
						2.0,
						2.0,
						2.0
					]
				},
				"KHR_materials_ior":{
					"ior":1.4500000476837158
				}
			},
			"name":"body.001",
			"pbrMetallicRoughness":{
				"baseColorFactor":[
					0.8000000715255737,
					0.6253456473350525,
					0.2332630306482315,
					1
				],
				"metallicFactor":0,
				"roughnessFactor":0.36060604453086853
			}
		}
	],
	"meshes":[
		{
			"name":"Cube.004",
			"primitives":[
				{
					"attributes":{
						"POSITION":0,
						"NORMAL":1,
						"TEXCOORD_0":2
					},
					"indices":3,
					"material":0
				}
			]
		},
		{
			"name":"Cube.001",
			"primitives":[
				{
					"attributes":{
						"POSITION":4,
						"NORMAL":5,
						"TEXCOORD_0":6
					},
					"indices":7,
					"material":0
				}
			]
		},
		{
			"name":"Cube.002",
			"primitives":[
				{
					"attributes":{
						"POSITION":8,
						"NORMAL":9,
						"TEXCOORD_0":10
					},
					"indices":11,
					"material":0
				}
			]
		}
	],
	"accessors":[
		{
			"bufferView":0,
			"componentType":5126,
			"count":1460,
			"max":[
				1.904758095741272,
				1.7672420740127563,
				0.8699321150779724
			],
			"min":[
				-1.901434063911438,
				-1.4248076677322388,
				-1.8559168577194214
			],
			"type":"VEC3"
		},
		{
			"bufferView":1,
			"componentType":5126,
			"count":1460,
			"type":"VEC3"
		},
		{
			"bufferView":2,
			"componentType":5126,
			"count":1460,
			"type":"VEC2"
		},
		{
			"bufferView":3,
			"componentType":5123,
			"count":7056,
			"type":"SCALAR"
		},
		{
			"bufferView":4,
			"componentType":5126,
			"count":1992,
			"max":[
				1.3411235809326172,
				1.1954346895217896,
				1.7087788581848145
			],
			"min":[
				-1.336248517036438,
				-0.8432197570800781,
				0.9483828544616699
			],
			"type":"VEC3"
		},
		{
			"bufferView":5,
			"componentType":5126,
			"count":1992,
			"type":"VEC3"
		},
		{
			"bufferView":6,
			"componentType":5126,
			"count":1992,
			"type":"VEC2"
		},
		{
			"bufferView":7,
			"componentType":5123,
			"count":8880,
			"type":"SCALAR"
		},
		{
			"bufferView":8,
			"componentType":5126,
			"count":1910,
			"max":[
				1.8702220916748047,
				1.7470237016677856,
				-1.8064157962799072
			],
			"min":[
				-1.866832971572876,
				-1.4151149988174438,
				-4.071004867553711
			],
			"type":"VEC3"
		},
		{
			"bufferView":9,
			"componentType":5126,
			"count":1910,
			"type":"VEC3"
		},
		{
			"bufferView":10,
			"componentType":5126,
			"count":1910,
			"type":"VEC2"
		},
		{
			"bufferView":11,
			"componentType":5123,
			"count":8784,
			"type":"SCALAR"
		}
	],
	"bufferViews":[
		{
			"buffer":0,
			"byteLength":17520,
			"byteOffset":0,
			"target":34962
		},
		{
			"buffer":0,
			"byteLength":17520,
			"byteOffset":17520,
			"target":34962
		},
		{
			"buffer":0,
			"byteLength":11680,
			"byteOffset":35040,
			"target":34962
		},
		{
			"buffer":0,
			"byteLength":14112,
			"byteOffset":46720,
			"target":34963
		},
		{
			"buffer":0,
			"byteLength":23904,
			"byteOffset":60832,
			"target":34962
		},
		{
			"buffer":0,
			"byteLength":23904,
			"byteOffset":84736,
			"target":34962
		},
		{
			"buffer":0,
			"byteLength":15936,
			"byteOffset":108640,
			"target":34962
		},
		{
			"buffer":0,
			"byteLength":17760,
			"byteOffset":124576,
			"target":34963
		},
		{
			"buffer":0,
			"byteLength":22920,
			"byteOffset":142336,
			"target":34962
		},
		{
			"buffer":0,
			"byteLength":22920,
			"byteOffset":165256,
			"target":34962
		},
		{
			"buffer":0,
			"byteLength":15280,
			"byteOffset":188176,
			"target":34962
		},
		{
			"buffer":0,
			"byteLength":17568,
			"byteOffset":203456,
			"target":34963
		}
	],
	"buffers":[
		{
			"byteLength":221024,
			"uri":"shatteredpig4.bin"
		}
	]
}
