{
	"asset":{
		"generator":"Khronos glTF Blender I/O v4.5.47",
		"version":"2.0"
	},
	"extensionsUsed":[
		"KHR_materials_specular",
		"KHR_materials_ior"
	],
	"scene":0,
	"scenes":[
		{
			"name":"Scene",
			"nodes":[
				0,
				1,
				2,
				3,
				4,
				5,
				6,
				7,
				8
			]
		}
	],
	"nodes":[
		{
			"mesh":0,
			"name":"pig.001",
			"translation":[
				-0.003715913975611329,
				1.4201306104660034,
				0.8873783946037292
			]
		},
		{
			"mesh":1,
			"name":"pig.002",
			"translation":[
				-0.003715913975611329,
				1.4201306104660034,
				0.887378454208374
			]
		},
		{
			"mesh":2,
			"name":"pig.003",
			"translation":[
				-0.003715913975611329,
				1.6928343772888184,
				0.8873783946037292
			]
		},
		{
			"mesh":3,
			"name":"pig.004",
			"translation":[
				-0.003715913975611329,
				1.6928343772888184,
				0.8873783946037292
			]
		},
		{
			"mesh":4,
			"name":"pig.005",
			"translation":[
				-0.003715913975611329,
				1.3371275663375854,
				0.8873783946037292
			]
		},
		{
			"mesh":5,
			"name":"pig.006",
			"translation":[
				-0.003715913975611329,
				1.3371275663375854,
				0.8873783946037292
			]
		},
		{
			"mesh":6,
			"name":"pig.008",
			"translation":[
				-0.003715913975611329,
				1.4201306104660034,
				0.8873783946037292
			]
		},
		{
			"mesh":7,
			"name":"pig.007",
			"translation":[
				-0.003715913975611329,
				1.3603489398956299,
				0.887378454208374
			]
		},
		{
			"mesh":8,
			"name":"pig.009",
			"translation":[
				-0.003715913975611329,
				1.3603489398956299,
				0.887378454208374
			]
		}
	],
	"materials":[
		{
			"doubleSided":true,
			"extensions":{
				"KHR_materials_specular":{
					"specularColorFactor":[
						2.0,
						2.0,
						2.0
					]
				},
				"KHR_materials_ior":{
					"ior":1.4500000476837158
				}
			},
			"name":"body.001",
			"pbrMetallicRoughness":{
				"baseColorFactor":[
					0.8000000715255737,
					0.6253456473350525,
					0.2332630306482315,
					1
				],
				"metallicFactor":0,
				"roughnessFactor":0.36060604453086853
			}
		}
	],
	"meshes":[
		{
			"name":"Cube.001",
			"primitives":[
				{
					"attributes":{
						"POSITION":0,
						"NORMAL":1,
						"TEXCOORD_0":2
					},
					"indices":3,
					"material":0
				}
			]
		},
		{
			"name":"Cube.002",
			"primitives":[
				{
					"attributes":{
						"POSITION":4,
						"NORMAL":5,
						"TEXCOORD_0":6
					},
					"indices":7,
					"material":0
				}
			]
		},
		{
			"name":"Cube.006",
			"primitives":[
				{
					"attributes":{
						"POSITION":8,
						"NORMAL":9,
						"TEXCOORD_0":10
					},
					"indices":11,
					"material":0
				}
			]
		},
		{
			"name":"Cube.007",
			"primitives":[
				{
					"attributes":{
						"POSITION":12,
						"NORMAL":13,
						"TEXCOORD_0":14
					},
					"indices":15,
					"material":0
				}
			]
		},
		{
			"name":"Cube.008",
			"primitives":[
				{
					"attributes":{
						"POSITION":16,
						"NORMAL":17,
						"TEXCOORD_0":18
					},
					"indices":19,
					"material":0
				}
			]
		},
		{
			"name":"Cube.009",
			"primitives":[
				{
					"attributes":{
						"POSITION":20,
						"NORMAL":21,
						"TEXCOORD_0":22
					},
					"indices":23,
					"material":0
				}
			]
		},
		{
			"name":"Cube.011",
			"primitives":[
				{
					"attributes":{
						"POSITION":24,
						"NORMAL":25,
						"TEXCOORD_0":26
					},
					"indices":27,
					"material":0
				}
			]
		},
		{
			"name":"Cube.012",
			"primitives":[
				{
					"attributes":{
						"POSITION":28,
						"NORMAL":29,
						"TEXCOORD_0":30
					},
					"indices":31,
					"material":0
				}
			]
		},
		{
			"name":"Cube.013",
			"primitives":[
				{
					"attributes":{
						"POSITION":32,
						"NORMAL":33,
						"TEXCOORD_0":34
					},
					"indices":35,
					"material":0
				}
			]
		}
	],
	"accessors":[
		{
			"bufferView":0,
			"componentType":5126,
			"count":1992,
			"max":[
				1.3411235809326172,
				1.1954346895217896,
				1.7087788581848145
			],
			"min":[
				-1.336248517036438,
				-0.8432197570800781,
				0.9483828544616699
			],
			"type":"VEC3"
		},
		{
			"bufferView":1,
			"componentType":5126,
			"count":1992,
			"type":"VEC3"
		},
		{
			"bufferView":2,
			"componentType":5126,
			"count":1992,
			"type":"VEC2"
		},
		{
			"bufferView":3,
			"componentType":5123,
			"count":8880,
			"type":"SCALAR"
		},
		{
			"bufferView":4,
			"componentType":5126,
			"count":1694,
			"max":[
				1.8702220916748047,
				1.7470237016677856,
				-1.8064157962799072
			],
			"min":[
				-1.866832971572876,
				-1.1984226703643799,
				-4.071004867553711
			],
			"type":"VEC3"
		},
		{
			"bufferView":5,
			"componentType":5126,
			"count":1694,
			"type":"VEC3"
		},
		{
			"bufferView":6,
			"componentType":5126,
			"count":1694,
			"type":"VEC2"
		},
		{
			"bufferView":7,
			"componentType":5123,
			"count":7728,
			"type":"SCALAR"
		},
		{
			"bufferView":8,
			"componentType":5126,
			"count":61,
			"max":[
				-0.5076484680175781,
				1.74016535282135,
				0.6772299408912659
			],
			"min":[
				-1.3487235307693481,
				1.0571733713150024,
				0.13629978895187378
			],
			"type":"VEC3"
		},
		{
			"bufferView":9,
			"componentType":5126,
			"count":61,
			"type":"VEC3"
		},
		{
			"bufferView":10,
			"componentType":5126,
			"count":61,
			"type":"VEC2"
		},
		{
			"bufferView":11,
			"componentType":5123,
			"count":276,
			"type":"SCALAR"
		},
		{
			"bufferView":12,
			"componentType":5126,
			"count":57,
			"max":[
				1.3159695863723755,
				1.7672420740127563,
				0.6787851452827454
			],
			"min":[
				0.5018872022628784,
				1.061400294303894,
				0.054689228534698486
			],
			"type":"VEC3"
		},
		{
			"bufferView":13,
			"componentType":5126,
			"count":57,
			"type":"VEC3"
		},
		{
			"bufferView":14,
			"componentType":5126,
			"count":57,
			"type":"VEC2"
		},
		{
			"bufferView":15,
			"componentType":5123,
			"count":276,
			"type":"SCALAR"
		},
		{
			"bufferView":16,
			"componentType":5126,
			"count":106,
			"max":[
				1.3739396333694458,
				-0.8044989705085754,
				0.691902220249176
			],
			"min":[
				0.3391611576080322,
				-1.4243838787078857,
				-0.3550812602043152
			],
			"type":"VEC3"
		},
		{
			"bufferView":17,
			"componentType":5126,
			"count":106,
			"type":"VEC3"
		},
		{
			"bufferView":18,
			"componentType":5126,
			"count":106,
			"type":"VEC2"
		},
		{
			"bufferView":19,
			"componentType":5123,
			"count":480,
			"type":"SCALAR"
		},
		{
			"bufferView":20,
			"componentType":5126,
			"count":109,
			"max":[
				-0.3351992666721344,
				-0.804499089717865,
				0.6933220028877258
			],
			"min":[
				-1.3632218837738037,
				-1.4248076677322388,
				-0.3550666570663452
			],
			"type":"VEC3"
		},
		{
			"bufferView":21,
			"componentType":5126,
			"count":109,
			"type":"VEC3"
		},
		{
			"bufferView":22,
			"componentType":5126,
			"count":109,
			"type":"VEC2"
		},
		{
			"bufferView":23,
			"componentType":5123,
			"count":480,
			"type":"SCALAR"
		},
		{
			"bufferView":24,
			"componentType":5126,
			"count":848,
			"max":[
				1.904758095741272,
				1.767203450202942,
				0.8699321150779724
			],
			"min":[
				-1.901434063911438,
				-1.2283138036727905,
				-1.8559168577194214
			],
			"type":"VEC3"
		},
		{
			"bufferView":25,
			"componentType":5126,
			"count":848,
			"type":"VEC3"
		},
		{
			"bufferView":26,
			"componentType":5126,
			"count":848,
			"type":"VEC2"
		},
		{
			"bufferView":27,
			"componentType":5123,
			"count":4032,
			"type":"SCALAR"
		},
		{
			"bufferView":28,
			"componentType":5126,
			"count":62,
			"max":[
				-0.4748437702655792,
				-1.0111351013183594,
				-2.543631076812744
			],
			"min":[
				-1.3335182666778564,
				-1.4151149988174438,
				-3.2324440479278564
			],
			"type":"VEC3"
		},
		{
			"bufferView":29,
			"componentType":5126,
			"count":62,
			"type":"VEC3"
		},
		{
			"bufferView":30,
			"componentType":5126,
			"count":62,
			"type":"VEC2"
		},
		{
			"bufferView":31,
			"componentType":5123,
			"count":264,
			"type":"SCALAR"
		},
		{
			"bufferView":32,
			"componentType":5126,
			"count":62,
			"max":[
				1.3444206714630127,
				-1.010947346687317,
				-2.5436224937438965
			],
			"min":[
				0.47887471318244934,
				-1.4136236906051636,
				-3.2316224575042725
			],
			"type":"VEC3"
		},
		{
			"bufferView":33,
			"componentType":5126,
			"count":62,
			"type":"VEC3"
		},
		{
			"bufferView":34,
			"componentType":5126,
			"count":62,
			"type":"VEC2"
		},
		{
			"bufferView":35,
			"componentType":5123,
			"count":264,
			"type":"SCALAR"
		}
	],
	"bufferViews":[
		{
			"buffer":0,
			"byteLength":23904,
			"byteOffset":0,
			"target":34962
		},
		{
			"buffer":0,
			"byteLength":23904,
			"byteOffset":23904,
			"target":34962
		},
		{
			"buffer":0,
			"byteLength":15936,
			"byteOffset":47808,
			"target":34962
		},
		{
			"buffer":0,
			"byteLength":17760,
			"byteOffset":63744,
			"target":34963
		},
		{
			"buffer":0,
			"byteLength":20328,
			"byteOffset":81504,
			"target":34962
		},
		{
			"buffer":0,
			"byteLength":20328,
			"byteOffset":101832,
			"target":34962
		},
		{
			"buffer":0,
			"byteLength":13552,
			"byteOffset":122160,
			"target":34962
		},
		{
			"buffer":0,
			"byteLength":15456,
			"byteOffset":135712,
			"target":34963
		},
		{
			"buffer":0,
			"byteLength":732,
			"byteOffset":151168,
			"target":34962
		},
		{
			"buffer":0,
			"byteLength":732,
			"byteOffset":151900,
			"target":34962
		},
		{
			"buffer":0,
			"byteLength":488,
			"byteOffset":152632,
			"target":34962
		},
		{
			"buffer":0,
			"byteLength":552,
			"byteOffset":153120,
			"target":34963
		},
		{
			"buffer":0,
			"byteLength":684,
			"byteOffset":153672,
			"target":34962
		},
		{
			"buffer":0,
			"byteLength":684,
			"byteOffset":154356,
			"target":34962
		},
		{
			"buffer":0,
			"byteLength":456,
			"byteOffset":155040,
			"target":34962
		},
		{
			"buffer":0,
			"byteLength":552,
			"byteOffset":155496,
			"target":34963
		},
		{
			"buffer":0,
			"byteLength":1272,
			"byteOffset":156048,
			"target":34962
		},
		{
			"buffer":0,
			"byteLength":1272,
			"byteOffset":157320,
			"target":34962
		},
		{
			"buffer":0,
			"byteLength":848,
			"byteOffset":158592,
			"target":34962
		},
		{
			"buffer":0,
			"byteLength":960,
			"byteOffset":159440,
			"target":34963
		},
		{
			"buffer":0,
			"byteLength":1308,
			"byteOffset":160400,
			"target":34962
		},
		{
			"buffer":0,
			"byteLength":1308,
			"byteOffset":161708,
			"target":34962
		},
		{
			"buffer":0,
			"byteLength":872,
			"byteOffset":163016,
			"target":34962
		},
		{
			"buffer":0,
			"byteLength":960,
			"byteOffset":163888,
			"target":34963
		},
		{
			"buffer":0,
			"byteLength":10176,
			"byteOffset":164848,
			"target":34962
		},
		{
			"buffer":0,
			"byteLength":10176,
			"byteOffset":175024,
			"target":34962
		},
		{
			"buffer":0,
			"byteLength":6784,
			"byteOffset":185200,
			"target":34962
		},
		{
			"buffer":0,
			"byteLength":8064,
			"byteOffset":191984,
			"target":34963
		},
		{
			"buffer":0,
			"byteLength":744,
			"byteOffset":200048,
			"target":34962
		},
		{
			"buffer":0,
			"byteLength":744,
			"byteOffset":200792,
			"target":34962
		},
		{
			"buffer":0,
			"byteLength":496,
			"byteOffset":201536,
			"target":34962
		},
		{
			"buffer":0,
			"byteLength":528,
			"byteOffset":202032,
			"target":34963
		},
		{
			"buffer":0,
			"byteLength":744,
			"byteOffset":202560,
			"target":34962
		},
		{
			"buffer":0,
			"byteLength":744,
			"byteOffset":203304,
			"target":34962
		},
		{
			"buffer":0,
			"byteLength":496,
			"byteOffset":204048,
			"target":34962
		},
		{
			"buffer":0,
			"byteLength":528,
			"byteOffset":204544,
			"target":34963
		}
	],
	"buffers":[
		{
			"byteLength":205072,
			"uri":"shatteredpig5.bin"
		}
	]
}
