# Blender 4.2.0
# www.blender.org
mtllib testhall.mtl
o Cube.001
v -13.840653 0.000003 41.578110
v -13.840653 27.681311 41.578106
v -13.840653 0.000001 13.896804
v -13.840653 27.681309 13.896802
v 13.840653 0.000003 41.578110
v 13.840653 27.681311 41.578106
v 13.840653 0.000001 13.896804
v 13.840653 27.681309 13.896802
vn 1.0000 -0.0000 -0.0000
vn -1.0000 -0.0000 -0.0000
vn -0.0000 -1.0000 -0.0000
vn -0.0000 1.0000 -0.0000
vt 0.000000 0.500000
vt 0.500000 0.500000
vt 0.500000 0.000000
vt 0.000000 1.000000
vt 0.500000 1.000000
vt 0.000000 0.000000
vt 1.000000 1.000000
vt 1.000000 0.500000
vt 1.000000 0.000000
s 0
usemtl wall.002
f 2/1/1 1/2/1 3/3/1
f 8/4/2 7/5/2 5/2/2
f 2/1/1 3/3/1 4/6/1
f 8/4/2 5/2/2 6/1/2
usemtl ceiling.002
f 4/7/3 8/8/3 6/2/3
f 4/7/3 6/2/3 2/5/3
usemtl floor.002
f 7/8/4 3/9/4 1/3/4
f 7/8/4 1/3/4 5/2/4
o Cube.002
v -13.840653 0.000001 13.940726
v -13.840653 27.681309 13.940724
v -13.840653 -0.000001 -13.740581
v -13.840653 27.681305 -13.740582
v 13.840653 0.000001 13.940726
v 13.840653 27.681309 13.940724
v 13.840653 -0.000001 -13.740581
v 13.840653 27.681305 -13.740582
vn 1.0000 -0.0000 -0.0000
vn -1.0000 -0.0000 -0.0000
vn -0.0000 -1.0000 -0.0000
vn -0.0000 1.0000 -0.0000
vt 0.000000 0.500000
vt 0.500000 0.500000
vt 0.500000 0.000000
vt 0.000000 1.000000
vt 0.500000 1.000000
vt 0.000000 0.000000
vt 1.000000 1.000000
vt 1.000000 0.500000
vt 1.000000 0.000000
s 0
usemtl wall.002
f 10/10/5 9/11/5 11/12/5
f 16/13/6 15/14/6 13/11/6
f 10/10/5 11/12/5 12/15/5
f 16/13/6 13/11/6 14/10/6
usemtl ceiling.002
f 12/16/7 16/17/7 14/11/7
f 12/16/7 14/11/7 10/14/7
usemtl floor.002
f 15/17/8 11/18/8 9/12/8
f 15/17/8 9/12/8 13/11/8
o Cube.003
v -13.840653 0.000005 69.165718
v -13.840653 27.681313 69.165718
v -13.840653 0.000003 41.484413
v -13.840653 27.681311 41.484409
v 13.840653 0.000005 69.165718
v 13.840653 27.681313 69.165718
v 13.840653 0.000003 41.484413
v 13.840653 27.681311 41.484409
vn 1.0000 -0.0000 -0.0000
vn -1.0000 -0.0000 -0.0000
vn -0.0000 -1.0000 -0.0000
vn -0.0000 1.0000 -0.0000
vt 0.000000 0.500000
vt 0.500000 0.500000
vt 0.500000 0.000000
vt 0.000000 1.000000
vt 0.500000 1.000000
vt 0.000000 0.000000
vt 1.000000 1.000000
vt 1.000000 0.500000
vt 1.000000 0.000000
s 0
usemtl wall.002
f 18/19/9 17/20/9 19/21/9
f 24/22/10 23/23/10 21/20/10
f 18/19/9 19/21/9 20/24/9
f 24/22/10 21/20/10 22/19/10
usemtl ceiling.002
f 20/25/11 24/26/11 22/20/11
f 20/25/11 22/20/11 18/23/11
usemtl floor.002
f 23/26/12 19/27/12 17/21/12
f 23/26/12 17/21/12 21/20/12
o Cube.004
v -13.840653 -0.000001 -13.766849
v -13.840653 27.681305 -13.766850
v -13.840653 -0.000003 -41.448154
v -13.840653 27.681303 -41.448158
v 13.840653 -0.000001 -13.766849
v 13.840653 27.681305 -13.766850
v 13.840653 -0.000003 -41.448154
v 13.840653 27.681303 -41.448158
vn 1.0000 -0.0000 -0.0000
vn -1.0000 -0.0000 -0.0000
vn -0.0000 -1.0000 -0.0000
vn -0.0000 1.0000 -0.0000
vt 0.000000 0.500000
vt 0.500000 0.500000
vt 0.500000 0.000000
vt 0.000000 1.000000
vt 0.500000 1.000000
vt 0.000000 0.000000
vt 1.000000 1.000000
vt 1.000000 0.500000
vt 1.000000 0.000000
s 0
usemtl wall.002
f 26/28/13 25/29/13 27/30/13
f 32/31/14 31/32/14 29/29/14
f 26/28/13 27/30/13 28/33/13
f 32/31/14 29/29/14 30/28/14
usemtl ceiling.002
f 28/34/15 32/35/15 30/29/15
f 28/34/15 30/29/15 26/32/15
usemtl floor.002
f 31/35/16 27/36/16 25/30/16
f 31/35/16 25/30/16 29/29/16
