{
	"asset":{
		"generator":"Khronos glTF Blender I/O v4.5.47",
		"version":"2.0"
	},
	"scene":1,
	"scenes":[
		{
			"name":"Scene",
			"nodes":[
				0
			]
		},
		{
			"name":"v2",
			"nodes":[
				1
			]
		},
		{
			"name":"v2.snek",
			"nodes":[
				12
			]
		}
	],
	"nodes":[
		{
			"mesh":0,
			"name":"Cube",
			"scale":[
				17.353736877441406,
				0.41885998845100403,
				30.411069869995117
			],
			"translation":[
				0,
				1.8807839155197144,
				-29.095430374145508
			]
		},
		{
			"mesh":1,
			"name":"Plane"
		},
		{
			"name":"Bone",
			"translation":[
				0.03513539209961891,
				0.485399067401886,
				0.08291712403297424
			]
		},
		{
			"name":"Bone.001",
			"rotation":[
				6.535467633739245e-08,
				5.135009928380896e-08,
				-0.6026365756988525,
				0.7980157732963562
			],
			"scale":[
				1.0000001192092896,
				1.0000001192092896,
				1
			],
			"translation":[
				0.6121249794960022,
				0.3269873261451721,
				0.09467647224664688
			]
		},
		{
			"name":"Bone.002",
			"rotation":[
				0.42133834958076477,
				-0.5815457105636597,
				0.40829214453697205,
				0.5635388493537903
			],
			"scale":[
				1,
				1.0000001192092896,
				1.0000001192092896
			],
			"translation":[
				-0.5987650156021118,
				0.31552186608314514,
				0.1257302463054657
			]
		},
		{
			"name":"Bone.003",
			"rotation":[
				-0.702872633934021,
				-0.07726406306028366,
				-0.7028731107711792,
				0.07726407051086426
			],
			"translation":[
				1.0214272737503052,
				-0.9746730923652649,
				0.08291718363761902
			]
		},
		{
			"name":"Bone.005",
			"rotation":[
				0.7071066498756409,
				-1.0536704841968003e-08,
				0.70710688829422,
				6.322026990801533e-08
			],
			"scale":[
				1,
				0.9999999403953552,
				1
			],
			"translation":[
				0.0351359061896801,
				-0.14251896739006042,
				0.08291714638471603
			]
		},
		{
			"name":"Bone.006",
			"rotation":[
				9.336382333913207e-08,
				1.4004572790327074e-07,
				-0.6026365756988525,
				0.7980157732963562
			],
			"translation":[
				2.197042942047119,
				0.7276246547698975,
				0.07320494949817657
			]
		},
		{
			"name":"Bone.007",
			"rotation":[
				0.4213384687900543,
				-0.5815455913543701,
				0.408292293548584,
				0.5635389685630798
			],
			"scale":[
				0.9999999403953552,
				0.9999998211860657,
				0.9999999403953552
			],
			"translation":[
				-2.084796905517578,
				0.6321419477462769,
				0.10729297250509262
			]
		},
		{
			"name":"Bone.008",
			"rotation":[
				-0.6700464487075806,
				-0.21689718961715698,
				-0.6696072816848755,
				0.2358378767967224
			],
			"scale":[
				0.9999999403953552,
				0.9999998807907104,
				0.9999999403953552
			],
			"translation":[
				1.3262895345687866,
				-2.169308662414551,
				0.14195600152015686
			]
		},
		{
			"name":"Bone.004",
			"rotation":[
				0.7010138034820557,
				-0.0926242247223854,
				0.7010143995285034,
				0.09262442588806152
			],
			"scale":[
				0.9999998807907104,
				0.9999995827674866,
				0.9999998211860657
			],
			"translation":[
				-0.8336464166641235,
				-0.980318546295166,
				0.08291718363761902
			]
		},
		{
			"name":"Bone.009",
			"rotation":[
				0.6835653781890869,
				-0.2168375551700592,
				0.6694872379302979,
				0.19366642832756042
			],
			"scale":[
				0.9999999403953552,
				0.9999998211860657,
				0.9999999403953552
			],
			"translation":[
				-1.1920108795166016,
				-2.1584010124206543,
				0.14195600152015686
			]
		},
		{
			"children":[
				2,
				3,
				4,
				5,
				6,
				7,
				8,
				9,
				10,
				11
			],
			"name":"carpet1",
			"rotation":[
				0,
				-0.7071068286895752,
				0.7071068286895752,
				1.1520233300643667e-07
			],
			"translation":[
				0.04219738394021988,
				0.7847096920013428,
				-0.23467017710208893
			]
		}
	],
	"animations":[
		{
			"channels":[
				{
					"sampler":0,
					"target":{
						"node":0,
						"path":"translation"
					}
				},
				{
					"sampler":1,
					"target":{
						"node":0,
						"path":"scale"
					}
				}
			],
			"name":"CubeAction",
			"samplers":[
				{
					"input":8,
					"interpolation":"LINEAR",
					"output":9
				},
				{
					"input":8,
					"interpolation":"LINEAR",
					"output":10
				}
			]
		}
	],
	"materials":[
		{
			"doubleSided":true,
			"name":"base",
			"pbrMetallicRoughness":{
				"baseColorTexture":{
					"index":0
				},
				"metallicFactor":0
			}
		},
		{
			"doubleSided":true,
			"name":"Material",
			"pbrMetallicRoughness":{
				"baseColorTexture":{
					"index":1
				},
				"metallicFactor":0
			}
		}
	],
	"meshes":[
		{
			"name":"Cube",
			"primitives":[
				{
					"attributes":{
						"POSITION":0,
						"NORMAL":1,
						"TEXCOORD_0":2
					},
					"indices":3,
					"material":0
				}
			]
		},
		{
			"name":"Plane",
			"primitives":[
				{
					"attributes":{
						"POSITION":4,
						"NORMAL":5,
						"TEXCOORD_0":6
					},
					"indices":7,
					"material":1
				}
			]
		}
	],
	"textures":[
		{
			"sampler":0,
			"source":0
		},
		{
			"sampler":1,
			"source":1
		}
	],
	"images":[
		{
			"mimeType":"image/png",
			"name":"hourglasswood1",
			"uri":"hourglasswood1.png"
		},
		{
			"mimeType":"image/png",
			"name":"stinkchestbake1",
			"uri":"stinkchestbake1.png"
		}
	],
	"skins":[
		{
			"inverseBindMatrices":11,
			"joints":[
				2,
				3,
				4,
				5,
				6,
				7,
				8,
				9,
				10,
				11
			],
			"name":"carpet1"
		}
	],
	"accessors":[
		{
			"bufferView":0,
			"componentType":5126,
			"count":790,
			"max":[
				1,
				1.6307801008224487,
				1
			],
			"min":[
				-1,
				-2.264772415161133,
				-1
			],
			"type":"VEC3"
		},
		{
			"bufferView":1,
			"componentType":5126,
			"count":790,
			"type":"VEC3"
		},
		{
			"bufferView":2,
			"componentType":5126,
			"count":790,
			"type":"VEC2"
		},
		{
			"bufferView":3,
			"componentType":5123,
			"count":2304,
			"type":"SCALAR"
		},
		{
			"bufferView":4,
			"componentType":5126,
			"count":480,
			"max":[
				191.06863403320312,
				0,
				230.73643493652344
			],
			"min":[
				-188.30271911621094,
				-10.92277717590332,
				-124.91568756103516
			],
			"type":"VEC3"
		},
		{
			"bufferView":5,
			"componentType":5126,
			"count":480,
			"type":"VEC3"
		},
		{
			"bufferView":6,
			"componentType":5126,
			"count":480,
			"type":"VEC2"
		},
		{
			"bufferView":7,
			"componentType":5123,
			"count":2352,
			"type":"SCALAR"
		},
		{
			"bufferView":8,
			"componentType":5126,
			"count":100,
			"max":[
				4.125
			],
			"min":[
				0
			],
			"type":"SCALAR"
		},
		{
			"bufferView":9,
			"componentType":5126,
			"count":100,
			"type":"VEC3"
		},
		{
			"bufferView":10,
			"componentType":5126,
			"count":100,
			"type":"VEC3"
		},
		{
			"bufferView":11,
			"componentType":5126,
			"count":10,
			"type":"MAT4"
		}
	],
	"bufferViews":[
		{
			"buffer":0,
			"byteLength":9480,
			"byteOffset":0,
			"target":34962
		},
		{
			"buffer":0,
			"byteLength":9480,
			"byteOffset":9480,
			"target":34962
		},
		{
			"buffer":0,
			"byteLength":6320,
			"byteOffset":18960,
			"target":34962
		},
		{
			"buffer":0,
			"byteLength":4608,
			"byteOffset":25280,
			"target":34963
		},
		{
			"buffer":0,
			"byteLength":5760,
			"byteOffset":29888,
			"target":34962
		},
		{
			"buffer":0,
			"byteLength":5760,
			"byteOffset":35648,
			"target":34962
		},
		{
			"buffer":0,
			"byteLength":3840,
			"byteOffset":41408,
			"target":34962
		},
		{
			"buffer":0,
			"byteLength":4704,
			"byteOffset":45248,
			"target":34963
		},
		{
			"buffer":0,
			"byteLength":400,
			"byteOffset":49952
		},
		{
			"buffer":0,
			"byteLength":1200,
			"byteOffset":50352
		},
		{
			"buffer":0,
			"byteLength":1200,
			"byteOffset":51552
		},
		{
			"buffer":0,
			"byteLength":640,
			"byteOffset":52752
		}
	],
	"samplers":[
		{
			"magFilter":9729,
			"minFilter":9987
		},
		{
			"magFilter":9729,
			"minFilter":9987,
			"wrapS":33648,
			"wrapT":33648
		}
	],
	"buffers":[
		{
			"byteLength":53392,
			"uri":"humancarpet1.bin"
		}
	]
}
