{
	"asset":{
		"generator":"Khronos glTF Blender I/O v4.5.47",
		"version":"2.0"
	},
	"extensionsUsed":[
		"KHR_materials_transmission"
	],
	"scene":0,
	"scenes":[
		{
			"name":"Scene",
			"nodes":[
				0
			]
		}
	],
	"nodes":[
		{
			"mesh":0,
			"name":"Cube.007"
		}
	],
	"materials":[
		{
			"doubleSided":true,
			"name":"post",
			"pbrMetallicRoughness":{
				"baseColorTexture":{
					"index":0
				},
				"metallicFactor":0
			}
		},
		{
			"alphaMode":"BLEND",
			"doubleSided":true,
			"extensions":{
				"KHR_materials_transmission":{
					"transmissionFactor":0.8909090757369995
				}
			},
			"name":"Material.001",
			"pbrMetallicRoughness":{
				"baseColorFactor":[
					1,
					1,
					1,
					0.3136363625526428
				],
				"baseColorTexture":{
					"index":1
				},
				"metallicFactor":0,
				"roughnessFactor":0
			}
		},
		{
			"doubleSided":true,
			"name":"base",
			"pbrMetallicRoughness":{
				"baseColorTexture":{
					"index":2
				},
				"metallicFactor":0
			}
		}
	],
	"meshes":[
		{
			"name":"Cube.001",
			"primitives":[
				{
					"attributes":{
						"POSITION":0,
						"NORMAL":1,
						"TEXCOORD_0":2
					},
					"indices":3,
					"material":0
				},
				{
					"attributes":{
						"POSITION":4,
						"NORMAL":5,
						"TEXCOORD_0":6
					},
					"indices":7,
					"material":1
				},
				{
					"attributes":{
						"POSITION":8,
						"NORMAL":9,
						"TEXCOORD_0":10
					},
					"indices":11,
					"material":2
				}
			]
		}
	],
	"textures":[
		{
			"sampler":0,
			"source":0
		},
		{
			"sampler":0,
			"source":1
		},
		{
			"sampler":0,
			"source":0
		}
	],
	"images":[
		{
			"mimeType":"image/png",
			"name":"hourglasswood1",
			"uri":"hourglasswood1.png"
		},
		{
			"mimeType":"image/png",
			"name":"glass",
			"uri":"glass.png"
		}
	],
	"accessors":[
		{
			"bufferView":0,
			"componentType":5126,
			"count":684,
			"max":[
				1.5596362352371216,
				2.6107430458068848,
				0.9115301370620728
			],
			"min":[
				-1.762831449508667,
				-2.61448335647583,
				-1.6112732887268066
			],
			"type":"VEC3"
		},
		{
			"bufferView":1,
			"componentType":5126,
			"count":684,
			"type":"VEC3"
		},
		{
			"bufferView":2,
			"componentType":5126,
			"count":684,
			"type":"VEC2"
		},
		{
			"bufferView":3,
			"componentType":5123,
			"count":2880,
			"type":"SCALAR"
		},
		{
			"bufferView":4,
			"componentType":5126,
			"count":204,
			"max":[
				1.189958930015564,
				2.64609956741333,
				1.2285395860671997
			],
			"min":[
				-1.4602617025375366,
				-2.6796035766601562,
				-1.2371758222579956
			],
			"type":"VEC3"
		},
		{
			"bufferView":5,
			"componentType":5126,
			"count":204,
			"type":"VEC3"
		},
		{
			"bufferView":6,
			"componentType":5126,
			"count":204,
			"type":"VEC2"
		},
		{
			"bufferView":7,
			"componentType":5123,
			"count":960,
			"type":"SCALAR"
		},
		{
			"bufferView":8,
			"componentType":5126,
			"count":164,
			"max":[
				1.9165805578231812,
				2.995936870574951,
				1.9199447631835938
			],
			"min":[
				-2.1868832111358643,
				-3.0201525688171387,
				-1.9091553688049316
			],
			"type":"VEC3"
		},
		{
			"bufferView":9,
			"componentType":5126,
			"count":164,
			"type":"VEC3"
		},
		{
			"bufferView":10,
			"componentType":5126,
			"count":164,
			"type":"VEC2"
		},
		{
			"bufferView":11,
			"componentType":5123,
			"count":768,
			"type":"SCALAR"
		}
	],
	"bufferViews":[
		{
			"buffer":0,
			"byteLength":8208,
			"byteOffset":0,
			"target":34962
		},
		{
			"buffer":0,
			"byteLength":8208,
			"byteOffset":8208,
			"target":34962
		},
		{
			"buffer":0,
			"byteLength":5472,
			"byteOffset":16416,
			"target":34962
		},
		{
			"buffer":0,
			"byteLength":5760,
			"byteOffset":21888,
			"target":34963
		},
		{
			"buffer":0,
			"byteLength":2448,
			"byteOffset":27648,
			"target":34962
		},
		{
			"buffer":0,
			"byteLength":2448,
			"byteOffset":30096,
			"target":34962
		},
		{
			"buffer":0,
			"byteLength":1632,
			"byteOffset":32544,
			"target":34962
		},
		{
			"buffer":0,
			"byteLength":1920,
			"byteOffset":34176,
			"target":34963
		},
		{
			"buffer":0,
			"byteLength":1968,
			"byteOffset":36096,
			"target":34962
		},
		{
			"buffer":0,
			"byteLength":1968,
			"byteOffset":38064,
			"target":34962
		},
		{
			"buffer":0,
			"byteLength":1312,
			"byteOffset":40032,
			"target":34962
		},
		{
			"buffer":0,
			"byteLength":1536,
			"byteOffset":41344,
			"target":34963
		}
	],
	"samplers":[
		{
			"magFilter":9729,
			"minFilter":9987
		}
	],
	"buffers":[
		{
			"byteLength":42880,
			"uri":"hourglass.bin"
		}
	]
}
