{
	"asset":{
		"generator":"Khronos glTF Blender I/O v4.5.47",
		"version":"2.0"
	},
	"scene":0,
	"scenes":[
		{
			"name":"Scene",
			"nodes":[
				0
			]
		}
	],
	"nodes":[
		{
			"mesh":0,
			"name":"Cube.025"
		}
	],
	"materials":[
		{
			"doubleSided":true,
			"name":"base",
			"pbrMetallicRoughness":{
				"baseColorTexture":{
					"index":0
				},
				"metallicFactor":0
			}
		},
		{
			"doubleSided":true,
			"name":"gun.trigger.housing",
			"pbrMetallicRoughness":{
				"baseColorTexture":{
					"index":1
				},
				"metallicFactor":0,
				"roughnessFactor":0.5
			}
		},
		{
			"doubleSided":true,
			"name":"gun.tape",
			"pbrMetallicRoughness":{
				"baseColorTexture":{
					"index":2
				},
				"metallicFactor":0
			}
		},
		{
			"doubleSided":true,
			"name":"gun.hammer",
			"pbrMetallicRoughness":{
				"baseColorTexture":{
					"index":3
				},
				"metallicFactor":0,
				"roughnessFactor":0.5
			}
		},
		{
			"doubleSided":true,
			"name":"gun.barrel"
		},
		{
			"doubleSided":true,
			"name":"gun.wood",
			"pbrMetallicRoughness":{
				"baseColorTexture":{
					"index":4
				},
				"metallicFactor":0
			}
		},
		{
			"doubleSided":true,
			"name":"gun.wire.blue",
			"pbrMetallicRoughness":{
				"baseColorFactor":[
					0,
					0.12725593149662018,
					0.8002997636795044,
					1
				],
				"metallicFactor":0
			}
		},
		{
			"doubleSided":true,
			"name":"gun.wire.red",
			"pbrMetallicRoughness":{
				"baseColorFactor":[
					0.8002194166183472,
					0,
					0.002997092204168439,
					1
				],
				"metallicFactor":0,
				"roughnessFactor":0.5
			}
		}
	],
	"meshes":[
		{
			"name":"Cube.031",
			"primitives":[
				{
					"attributes":{
						"POSITION":0,
						"NORMAL":1,
						"TEXCOORD_0":2
					},
					"indices":3,
					"material":0
				},
				{
					"attributes":{
						"POSITION":4,
						"NORMAL":5,
						"TEXCOORD_0":6
					},
					"indices":7,
					"material":1
				},
				{
					"attributes":{
						"POSITION":8,
						"NORMAL":9,
						"TEXCOORD_0":10
					},
					"indices":11,
					"material":2
				},
				{
					"attributes":{
						"POSITION":12,
						"NORMAL":13,
						"TEXCOORD_0":14
					},
					"indices":15,
					"material":3
				},
				{
					"attributes":{
						"POSITION":16,
						"NORMAL":17,
						"TEXCOORD_0":18
					},
					"indices":19,
					"material":4
				},
				{
					"attributes":{
						"POSITION":20,
						"NORMAL":21,
						"TEXCOORD_0":22
					},
					"indices":23,
					"material":5
				},
				{
					"attributes":{
						"POSITION":24,
						"NORMAL":25,
						"TEXCOORD_0":26
					},
					"indices":27,
					"material":6
				},
				{
					"attributes":{
						"POSITION":28,
						"NORMAL":29,
						"TEXCOORD_0":30
					},
					"indices":31,
					"material":7
				}
			]
		}
	],
	"textures":[
		{
			"sampler":0,
			"source":0
		},
		{
			"sampler":0,
			"source":1
		},
		{
			"sampler":0,
			"source":2
		},
		{
			"sampler":0,
			"source":1
		},
		{
			"sampler":0,
			"source":3
		}
	],
	"images":[
		{
			"mimeType":"image/png",
			"name":"hourglasswood1",
			"uri":"hourglasswood1.png"
		},
		{
			"mimeType":"image/png",
			"name":"uipanel5",
			"uri":"uipanel5.png"
		},
		{
			"mimeType":"image/jpeg",
			"name":"ducttape",
			"uri":"ducttape.jpg"
		},
		{
			"mimeType":"image/png",
			"name":"floortex",
			"uri":"floortex.png"
		}
	],
	"accessors":[
		{
			"bufferView":0,
			"componentType":5126,
			"count":34,
			"max":[
				0.01514481008052826,
				0.09687422215938568,
				0.065628781914711
			],
			"min":[
				-0.01469615288078785,
				-0.10922584682703018,
				-0.022902676835656166
			],
			"type":"VEC3"
		},
		{
			"bufferView":1,
			"componentType":5126,
			"count":34,
			"type":"VEC3"
		},
		{
			"bufferView":2,
			"componentType":5126,
			"count":34,
			"type":"VEC2"
		},
		{
			"bufferView":3,
			"componentType":5123,
			"count":132,
			"type":"SCALAR"
		},
		{
			"bufferView":4,
			"componentType":5126,
			"count":30,
			"max":[
				0.026741817593574524,
				0.2154935747385025,
				0.3781892955303192
			],
			"min":[
				-0.02587914653122425,
				-0.21387028694152832,
				-0.29620423913002014
			],
			"type":"VEC3"
		},
		{
			"bufferView":5,
			"componentType":5126,
			"count":30,
			"type":"VEC3"
		},
		{
			"bufferView":6,
			"componentType":5126,
			"count":30,
			"type":"VEC2"
		},
		{
			"bufferView":7,
			"componentType":5123,
			"count":84,
			"type":"SCALAR"
		},
		{
			"bufferView":8,
			"componentType":5126,
			"count":594,
			"max":[
				0.26911017298698425,
				0.6584948301315308,
				1.6691701412200928
			],
			"min":[
				-0.2693553864955902,
				0.10833558440208435,
				-0.18756532669067383
			],
			"type":"VEC3"
		},
		{
			"bufferView":9,
			"componentType":5126,
			"count":594,
			"type":"VEC3"
		},
		{
			"bufferView":10,
			"componentType":5126,
			"count":594,
			"type":"VEC2"
		},
		{
			"bufferView":11,
			"componentType":5123,
			"count":3072,
			"type":"SCALAR"
		},
		{
			"bufferView":12,
			"componentType":5126,
			"count":40,
			"max":[
				0.28783220052719116,
				0.6859753727912903,
				-0.4294540584087372
			],
			"min":[
				-0.29982995986938477,
				0.40836575627326965,
				-0.7132755517959595
			],
			"type":"VEC3"
		},
		{
			"bufferView":13,
			"componentType":5126,
			"count":40,
			"type":"VEC3"
		},
		{
			"bufferView":14,
			"componentType":5126,
			"count":40,
			"type":"VEC2"
		},
		{
			"bufferView":15,
			"componentType":5123,
			"count":96,
			"type":"SCALAR"
		},
		{
			"bufferView":16,
			"componentType":5126,
			"count":84,
			"max":[
				0.2775469422340393,
				0.6516314744949341,
				2.6005945205688477
			],
			"min":[
				-0.2602611780166626,
				0.36733943223953247,
				-0.4874728322029114
			],
			"type":"VEC3"
		},
		{
			"bufferView":17,
			"componentType":5126,
			"count":84,
			"type":"VEC3"
		},
		{
			"bufferView":18,
			"componentType":5126,
			"count":84,
			"type":"VEC2"
		},
		{
			"bufferView":19,
			"componentType":5123,
			"count":192,
			"type":"SCALAR"
		},
		{
			"bufferView":20,
			"componentType":5126,
			"count":77,
			"max":[
				0.24353423714637756,
				0.4172174036502838,
				2.1760456562042236
			],
			"min":[
				-0.20790544152259827,
				-0.5764409303665161,
				-0.7325212955474854
			],
			"type":"VEC3"
		},
		{
			"bufferView":21,
			"componentType":5126,
			"count":77,
			"type":"VEC3"
		},
		{
			"bufferView":22,
			"componentType":5126,
			"count":77,
			"type":"VEC2"
		},
		{
			"bufferView":23,
			"componentType":5123,
			"count":216,
			"type":"SCALAR"
		},
		{
			"bufferView":24,
			"componentType":5126,
			"count":2170,
			"max":[
				-0.032839592546224594,
				0.8252071738243103,
				-0.007410997990518808
			],
			"min":[
				-0.42089778184890747,
				-0.015532334335148335,
				-0.782151997089386
			],
			"type":"VEC3"
		},
		{
			"bufferView":25,
			"componentType":5126,
			"count":2170,
			"type":"VEC3"
		},
		{
			"bufferView":26,
			"componentType":5126,
			"count":2170,
			"type":"VEC2"
		},
		{
			"bufferView":27,
			"componentType":5123,
			"count":3288,
			"type":"SCALAR"
		},
		{
			"bufferView":28,
			"componentType":5126,
			"count":122,
			"max":[
				0.4143989086151123,
				0.8276321291923523,
				-0.022163374349474907
			],
			"min":[
				0.12050917744636536,
				-0.006893969606608152,
				-0.7891465425491333
			],
			"type":"VEC3"
		},
		{
			"bufferView":29,
			"componentType":5126,
			"count":122,
			"type":"VEC3"
		},
		{
			"bufferView":30,
			"componentType":5126,
			"count":122,
			"type":"VEC2"
		},
		{
			"bufferView":31,
			"componentType":5123,
			"count":126,
			"type":"SCALAR"
		}
	],
	"bufferViews":[
		{
			"buffer":0,
			"byteLength":408,
			"byteOffset":0,
			"target":34962
		},
		{
			"buffer":0,
			"byteLength":408,
			"byteOffset":408,
			"target":34962
		},
		{
			"buffer":0,
			"byteLength":272,
			"byteOffset":816,
			"target":34962
		},
		{
			"buffer":0,
			"byteLength":264,
			"byteOffset":1088,
			"target":34963
		},
		{
			"buffer":0,
			"byteLength":360,
			"byteOffset":1352,
			"target":34962
		},
		{
			"buffer":0,
			"byteLength":360,
			"byteOffset":1712,
			"target":34962
		},
		{
			"buffer":0,
			"byteLength":240,
			"byteOffset":2072,
			"target":34962
		},
		{
			"buffer":0,
			"byteLength":168,
			"byteOffset":2312,
			"target":34963
		},
		{
			"buffer":0,
			"byteLength":7128,
			"byteOffset":2480,
			"target":34962
		},
		{
			"buffer":0,
			"byteLength":7128,
			"byteOffset":9608,
			"target":34962
		},
		{
			"buffer":0,
			"byteLength":4752,
			"byteOffset":16736,
			"target":34962
		},
		{
			"buffer":0,
			"byteLength":6144,
			"byteOffset":21488,
			"target":34963
		},
		{
			"buffer":0,
			"byteLength":480,
			"byteOffset":27632,
			"target":34962
		},
		{
			"buffer":0,
			"byteLength":480,
			"byteOffset":28112,
			"target":34962
		},
		{
			"buffer":0,
			"byteLength":320,
			"byteOffset":28592,
			"target":34962
		},
		{
			"buffer":0,
			"byteLength":192,
			"byteOffset":28912,
			"target":34963
		},
		{
			"buffer":0,
			"byteLength":1008,
			"byteOffset":29104,
			"target":34962
		},
		{
			"buffer":0,
			"byteLength":1008,
			"byteOffset":30112,
			"target":34962
		},
		{
			"buffer":0,
			"byteLength":672,
			"byteOffset":31120,
			"target":34962
		},
		{
			"buffer":0,
			"byteLength":384,
			"byteOffset":31792,
			"target":34963
		},
		{
			"buffer":0,
			"byteLength":924,
			"byteOffset":32176,
			"target":34962
		},
		{
			"buffer":0,
			"byteLength":924,
			"byteOffset":33100,
			"target":34962
		},
		{
			"buffer":0,
			"byteLength":616,
			"byteOffset":34024,
			"target":34962
		},
		{
			"buffer":0,
			"byteLength":432,
			"byteOffset":34640,
			"target":34963
		},
		{
			"buffer":0,
			"byteLength":26040,
			"byteOffset":35072,
			"target":34962
		},
		{
			"buffer":0,
			"byteLength":26040,
			"byteOffset":61112,
			"target":34962
		},
		{
			"buffer":0,
			"byteLength":17360,
			"byteOffset":87152,
			"target":34962
		},
		{
			"buffer":0,
			"byteLength":6576,
			"byteOffset":104512,
			"target":34963
		},
		{
			"buffer":0,
			"byteLength":1464,
			"byteOffset":111088,
			"target":34962
		},
		{
			"buffer":0,
			"byteLength":1464,
			"byteOffset":112552,
			"target":34962
		},
		{
			"buffer":0,
			"byteLength":976,
			"byteOffset":114016,
			"target":34962
		},
		{
			"buffer":0,
			"byteLength":252,
			"byteOffset":114992,
			"target":34963
		}
	],
	"samplers":[
		{
			"magFilter":9729,
			"minFilter":9987
		}
	],
	"buffers":[
		{
			"byteLength":115244,
			"uri":"testgun1.bin"
		}
	]
}
