{
	"asset":{
		"generator":"Khronos glTF Blender I/O v4.5.47",
		"version":"2.0"
	},
	"scene":0,
	"scenes":[
		{
			"name":"Scene",
			"nodes":[
				0
			]
		}
	],
	"nodes":[
		{
			"mesh":0,
			"name":"Cube.025",
			"scale":[
				0.019864512607455254,
				0.09687423706054688,
				0.014458050951361656
			]
		}
	],
	"materials":[
		{
			"doubleSided":true,
			"name":"base",
			"pbrMetallicRoughness":{
				"baseColorTexture":{
					"index":0
				},
				"metallicFactor":0
			}
		},
		{
			"doubleSided":true,
			"name":"gun.trigger.housing",
			"pbrMetallicRoughness":{
				"baseColorTexture":{
					"index":1
				},
				"metallicFactor":0,
				"roughnessFactor":0.5
			}
		},
		{
			"doubleSided":true,
			"name":"gun.tape",
			"pbrMetallicRoughness":{
				"baseColorTexture":{
					"index":2
				},
				"metallicFactor":0
			}
		},
		{
			"doubleSided":true,
			"name":"gun.hammer",
			"pbrMetallicRoughness":{
				"baseColorTexture":{
					"index":3
				},
				"metallicFactor":0,
				"roughnessFactor":0.5
			}
		},
		{
			"doubleSided":true,
			"name":"gun.barrel"
		},
		{
			"doubleSided":true,
			"name":"gun.wood",
			"pbrMetallicRoughness":{
				"baseColorTexture":{
					"index":4
				},
				"metallicFactor":0
			}
		},
		{
			"doubleSided":true,
			"name":"gun.wire.blue",
			"pbrMetallicRoughness":{
				"baseColorFactor":[
					0,
					0.12725593149662018,
					0.8002997636795044,
					1
				],
				"metallicFactor":0
			}
		},
		{
			"doubleSided":true,
			"name":"gun.wire.red",
			"pbrMetallicRoughness":{
				"baseColorFactor":[
					0.8002194166183472,
					0,
					0.002997092204168439,
					1
				],
				"metallicFactor":0,
				"roughnessFactor":0.5
			}
		}
	],
	"meshes":[
		{
			"name":"Cube.031",
			"primitives":[
				{
					"attributes":{
						"POSITION":0,
						"NORMAL":1,
						"TEXCOORD_0":2
					},
					"indices":3,
					"material":0
				},
				{
					"attributes":{
						"POSITION":4,
						"NORMAL":5,
						"TEXCOORD_0":6
					},
					"indices":7,
					"material":1
				},
				{
					"attributes":{
						"POSITION":8,
						"NORMAL":9,
						"TEXCOORD_0":10
					},
					"indices":11,
					"material":2
				},
				{
					"attributes":{
						"POSITION":12,
						"NORMAL":13,
						"TEXCOORD_0":14
					},
					"indices":15,
					"material":3
				},
				{
					"attributes":{
						"POSITION":16,
						"NORMAL":17,
						"TEXCOORD_0":18
					},
					"indices":19,
					"material":4
				},
				{
					"attributes":{
						"POSITION":20,
						"NORMAL":21,
						"TEXCOORD_0":22
					},
					"indices":23,
					"material":5
				},
				{
					"attributes":{
						"POSITION":24,
						"NORMAL":25,
						"TEXCOORD_0":26
					},
					"indices":27,
					"material":6
				},
				{
					"attributes":{
						"POSITION":28,
						"NORMAL":29,
						"TEXCOORD_0":30
					},
					"indices":31,
					"material":7
				}
			]
		}
	],
	"textures":[
		{
			"sampler":0,
			"source":0
		},
		{
			"sampler":0,
			"source":1
		},
		{
			"sampler":0,
			"source":2
		},
		{
			"sampler":0,
			"source":1
		},
		{
			"sampler":0,
			"source":3
		}
	],
	"images":[
		{
			"mimeType":"image/png",
			"name":"hourglasswood1",
			"uri":"hourglasswood1.png"
		},
		{
			"mimeType":"image/png",
			"name":"uipanel5",
			"uri":"uipanel5.png"
		},
		{
			"mimeType":"image/jpeg",
			"name":"ducttape",
			"uri":"ducttape.jpg"
		},
		{
			"mimeType":"image/png",
			"name":"floortex",
			"uri":"floortex.png"
		}
	],
	"accessors":[
		{
			"bufferView":0,
			"componentType":5126,
			"count":34,
			"max":[
				0.7624053359031677,
				0.9999998807907104,
				4.539255142211914
			],
			"min":[
				-0.7398194670677185,
				-1.1275014877319336,
				-1.5840777158737183
			],
			"type":"VEC3"
		},
		{
			"bufferView":1,
			"componentType":5126,
			"count":34,
			"type":"VEC3"
		},
		{
			"bufferView":2,
			"componentType":5126,
			"count":34,
			"type":"VEC2"
		},
		{
			"bufferView":3,
			"componentType":5123,
			"count":132,
			"type":"SCALAR"
		},
		{
			"bufferView":4,
			"componentType":5126,
			"count":30,
			"max":[
				1.3462105989456177,
				2.2244672775268555,
				26.157695770263672
			],
			"min":[
				-1.3027828931808472,
				-2.2077107429504395,
				-20.48714828491211
			],
			"type":"VEC3"
		},
		{
			"bufferView":5,
			"componentType":5126,
			"count":30,
			"type":"VEC3"
		},
		{
			"bufferView":6,
			"componentType":5126,
			"count":30,
			"type":"VEC2"
		},
		{
			"bufferView":7,
			"componentType":5123,
			"count":84,
			"type":"SCALAR"
		},
		{
			"bufferView":8,
			"componentType":5126,
			"count":594,
			"max":[
				13.547283172607422,
				6.797419548034668,
				115.44918060302734
			],
			"min":[
				-13.559627532958984,
				1.1183116436004639,
				-12.973071098327637
			],
			"type":"VEC3"
		},
		{
			"bufferView":9,
			"componentType":5126,
			"count":594,
			"type":"VEC3"
		},
		{
			"bufferView":10,
			"componentType":5126,
			"count":594,
			"type":"VEC2"
		},
		{
			"bufferView":11,
			"componentType":5123,
			"count":3072,
			"type":"SCALAR"
		},
		{
			"bufferView":12,
			"componentType":5126,
			"count":40,
			"max":[
				14.489768981933594,
				7.08109188079834,
				-29.703454971313477
			],
			"min":[
				-15.093749046325684,
				4.215421676635742,
				-49.334144592285156
			],
			"type":"VEC3"
		},
		{
			"bufferView":13,
			"componentType":5126,
			"count":40,
			"type":"VEC3"
		},
		{
			"bufferView":14,
			"componentType":5126,
			"count":40,
			"type":"VEC2"
		},
		{
			"bufferView":15,
			"componentType":5123,
			"count":96,
			"type":"SCALAR"
		},
		{
			"bufferView":16,
			"componentType":5126,
			"count":84,
			"max":[
				13.971999168395996,
				6.726571559906006,
				179.87171936035156
			],
			"min":[
				-13.101816177368164,
				3.7919206619262695,
				-33.71635818481445
			],
			"type":"VEC3"
		},
		{
			"bufferView":17,
			"componentType":5126,
			"count":84,
			"type":"VEC3"
		},
		{
			"bufferView":18,
			"componentType":5126,
			"count":84,
			"type":"VEC2"
		},
		{
			"bufferView":19,
			"componentType":5123,
			"count":192,
			"type":"SCALAR"
		},
		{
			"bufferView":20,
			"componentType":5126,
			"count":77,
			"max":[
				12.259763717651367,
				4.306794166564941,
				150.50753784179688
			],
			"min":[
				-10.466174125671387,
				-5.950405120849609,
				-50.665287017822266
			],
			"type":"VEC3"
		},
		{
			"bufferView":21,
			"componentType":5126,
			"count":77,
			"type":"VEC3"
		},
		{
			"bufferView":22,
			"componentType":5126,
			"count":77,
			"type":"VEC2"
		},
		{
			"bufferView":23,
			"componentType":5123,
			"count":216,
			"type":"SCALAR"
		},
		{
			"bufferView":24,
			"componentType":5126,
			"count":2144,
			"max":[
				-1.6531788110733032,
				8.51833438873291,
				-0.512586236000061
			],
			"min":[
				-21.188426971435547,
				-0.16033503413200378,
				-54.098026275634766
			],
			"type":"VEC3"
		},
		{
			"bufferView":25,
			"componentType":5126,
			"count":2144,
			"type":"VEC3"
		},
		{
			"bufferView":26,
			"componentType":5126,
			"count":2144,
			"type":"VEC2"
		},
		{
			"bufferView":27,
			"componentType":5123,
			"count":3288,
			"type":"SCALAR"
		},
		{
			"bufferView":28,
			"componentType":5126,
			"count":122,
			"max":[
				20.86126708984375,
				8.543366432189941,
				-1.5329434871673584
			],
			"min":[
				6.066555976867676,
				-0.07116411626338959,
				-54.58180618286133
			],
			"type":"VEC3"
		},
		{
			"bufferView":29,
			"componentType":5126,
			"count":122,
			"type":"VEC3"
		},
		{
			"bufferView":30,
			"componentType":5126,
			"count":122,
			"type":"VEC2"
		},
		{
			"bufferView":31,
			"componentType":5123,
			"count":126,
			"type":"SCALAR"
		}
	],
	"bufferViews":[
		{
			"buffer":0,
			"byteLength":408,
			"byteOffset":0,
			"target":34962
		},
		{
			"buffer":0,
			"byteLength":408,
			"byteOffset":408,
			"target":34962
		},
		{
			"buffer":0,
			"byteLength":272,
			"byteOffset":816,
			"target":34962
		},
		{
			"buffer":0,
			"byteLength":264,
			"byteOffset":1088,
			"target":34963
		},
		{
			"buffer":0,
			"byteLength":360,
			"byteOffset":1352,
			"target":34962
		},
		{
			"buffer":0,
			"byteLength":360,
			"byteOffset":1712,
			"target":34962
		},
		{
			"buffer":0,
			"byteLength":240,
			"byteOffset":2072,
			"target":34962
		},
		{
			"buffer":0,
			"byteLength":168,
			"byteOffset":2312,
			"target":34963
		},
		{
			"buffer":0,
			"byteLength":7128,
			"byteOffset":2480,
			"target":34962
		},
		{
			"buffer":0,
			"byteLength":7128,
			"byteOffset":9608,
			"target":34962
		},
		{
			"buffer":0,
			"byteLength":4752,
			"byteOffset":16736,
			"target":34962
		},
		{
			"buffer":0,
			"byteLength":6144,
			"byteOffset":21488,
			"target":34963
		},
		{
			"buffer":0,
			"byteLength":480,
			"byteOffset":27632,
			"target":34962
		},
		{
			"buffer":0,
			"byteLength":480,
			"byteOffset":28112,
			"target":34962
		},
		{
			"buffer":0,
			"byteLength":320,
			"byteOffset":28592,
			"target":34962
		},
		{
			"buffer":0,
			"byteLength":192,
			"byteOffset":28912,
			"target":34963
		},
		{
			"buffer":0,
			"byteLength":1008,
			"byteOffset":29104,
			"target":34962
		},
		{
			"buffer":0,
			"byteLength":1008,
			"byteOffset":30112,
			"target":34962
		},
		{
			"buffer":0,
			"byteLength":672,
			"byteOffset":31120,
			"target":34962
		},
		{
			"buffer":0,
			"byteLength":384,
			"byteOffset":31792,
			"target":34963
		},
		{
			"buffer":0,
			"byteLength":924,
			"byteOffset":32176,
			"target":34962
		},
		{
			"buffer":0,
			"byteLength":924,
			"byteOffset":33100,
			"target":34962
		},
		{
			"buffer":0,
			"byteLength":616,
			"byteOffset":34024,
			"target":34962
		},
		{
			"buffer":0,
			"byteLength":432,
			"byteOffset":34640,
			"target":34963
		},
		{
			"buffer":0,
			"byteLength":25728,
			"byteOffset":35072,
			"target":34962
		},
		{
			"buffer":0,
			"byteLength":25728,
			"byteOffset":60800,
			"target":34962
		},
		{
			"buffer":0,
			"byteLength":17152,
			"byteOffset":86528,
			"target":34962
		},
		{
			"buffer":0,
			"byteLength":6576,
			"byteOffset":103680,
			"target":34963
		},
		{
			"buffer":0,
			"byteLength":1464,
			"byteOffset":110256,
			"target":34962
		},
		{
			"buffer":0,
			"byteLength":1464,
			"byteOffset":111720,
			"target":34962
		},
		{
			"buffer":0,
			"byteLength":976,
			"byteOffset":113184,
			"target":34962
		},
		{
			"buffer":0,
			"byteLength":252,
			"byteOffset":114160,
			"target":34963
		}
	],
	"samplers":[
		{
			"magFilter":9729,
			"minFilter":9987
		}
	],
	"buffers":[
		{
			"byteLength":114412,
			"uri":"testgun1.bin"
		}
	]
}
