{
	"asset":{
		"generator":"Khronos glTF Blender I/O v4.2.57",
		"version":"2.0"
	},
	"scene":0,
	"scenes":[
		{
			"name":"Scene",
			"nodes":[
				0
			]
		}
	],
	"nodes":[
		{
			"mesh":0,
			"name":"Cube.025"
		}
	],
	"materials":[
		{
			"doubleSided":true,
			"name":"base",
			"pbrMetallicRoughness":{
				"baseColorTexture":{
					"index":0
				},
				"metallicFactor":0
			}
		},
		{
			"doubleSided":true,
			"name":"gun.trigger.housing",
			"pbrMetallicRoughness":{
				"baseColorTexture":{
					"index":1
				},
				"metallicFactor":0,
				"roughnessFactor":0.5
			}
		},
		{
			"doubleSided":true,
			"name":"gun.tape",
			"pbrMetallicRoughness":{
				"baseColorTexture":{
					"index":2
				},
				"metallicFactor":0
			}
		},
		{
			"doubleSided":true,
			"name":"gun.hammer",
			"pbrMetallicRoughness":{
				"baseColorTexture":{
					"index":3
				},
				"metallicFactor":0,
				"roughnessFactor":0.5
			}
		},
		{
			"doubleSided":true,
			"name":"gun.barrel"
		},
		{
			"doubleSided":true,
			"name":"gun.wood",
			"pbrMetallicRoughness":{
				"baseColorTexture":{
					"index":4
				},
				"metallicFactor":0
			}
		},
		{
			"doubleSided":true,
			"name":"gun.wire.blue",
			"pbrMetallicRoughness":{
				"baseColorFactor":[
					0,
					0.12725593149662018,
					0.8002997636795044,
					1
				],
				"metallicFactor":0
			}
		},
		{
			"doubleSided":true,
			"name":"gun.wire.red",
			"pbrMetallicRoughness":{
				"baseColorFactor":[
					0.8002194166183472,
					0,
					0.002997092204168439,
					1
				],
				"metallicFactor":0,
				"roughnessFactor":0.5
			}
		}
	],
	"meshes":[
		{
			"name":"Cube.031",
			"primitives":[
				{
					"attributes":{
						"POSITION":0,
						"NORMAL":1,
						"TEXCOORD_0":2
					},
					"indices":3,
					"material":0
				},
				{
					"attributes":{
						"POSITION":4,
						"NORMAL":5,
						"TEXCOORD_0":6
					},
					"indices":7,
					"material":1
				},
				{
					"attributes":{
						"POSITION":8,
						"NORMAL":9,
						"TEXCOORD_0":10
					},
					"indices":11,
					"material":2
				},
				{
					"attributes":{
						"POSITION":12,
						"NORMAL":13,
						"TEXCOORD_0":14
					},
					"indices":15,
					"material":3
				},
				{
					"attributes":{
						"POSITION":16,
						"NORMAL":17,
						"TEXCOORD_0":18
					},
					"indices":19,
					"material":4
				},
				{
					"attributes":{
						"POSITION":20,
						"NORMAL":21,
						"TEXCOORD_0":22
					},
					"indices":23,
					"material":5
				},
				{
					"attributes":{
						"POSITION":24,
						"NORMAL":25,
						"TEXCOORD_0":26
					},
					"indices":27,
					"material":6
				},
				{
					"attributes":{
						"POSITION":28,
						"NORMAL":29,
						"TEXCOORD_0":30
					},
					"indices":31,
					"material":7
				}
			]
		}
	],
	"textures":[
		{
			"sampler":0,
			"source":0
		},
		{
			"sampler":0,
			"source":1
		},
		{
			"sampler":0,
			"source":2
		},
		{
			"sampler":0,
			"source":1
		},
		{
			"sampler":0,
			"source":3
		}
	],
	"images":[
		{
			"mimeType":"image/png",
			"name":"hourglasswood1",
			"uri":"hourglasswood1.png"
		},
		{
			"mimeType":"image/png",
			"name":"uipanel5",
			"uri":"uipanel5.png"
		},
		{
			"mimeType":"image/jpeg",
			"name":"ducttape",
			"uri":"ducttape.jpg"
		},
		{
			"mimeType":"image/png",
			"name":"floortex",
			"uri":"floortex.png"
		}
	],
	"accessors":[
		{
			"bufferView":0,
			"componentType":5126,
			"count":34,
			"max":[
				0.004548235796391964,
				0.029092922806739807,
				0.019709402695298195
			],
			"min":[
				-0.00441349670290947,
				-0.032802317291498184,
				-0.00687805050984025
			],
			"type":"VEC3"
		},
		{
			"bufferView":1,
			"componentType":5126,
			"count":34,
			"type":"VEC3"
		},
		{
			"bufferView":2,
			"componentType":5126,
			"count":34,
			"type":"VEC2"
		},
		{
			"bufferView":3,
			"componentType":5123,
			"count":132,
			"type":"SCALAR"
		},
		{
			"bufferView":4,
			"componentType":5126,
			"count":37,
			"max":[
				0.008031007833778858,
				0.06471626460552216,
				0.11357647180557251
			],
			"min":[
				-0.007771933451294899,
				-0.06422876566648483,
				-0.08895500749349594
			],
			"type":"VEC3"
		},
		{
			"bufferView":5,
			"componentType":5126,
			"count":37,
			"type":"VEC3"
		},
		{
			"bufferView":6,
			"componentType":5126,
			"count":37,
			"type":"VEC2"
		},
		{
			"bufferView":7,
			"componentType":5123,
			"count":84,
			"type":"SCALAR"
		},
		{
			"bufferView":8,
			"componentType":5126,
			"count":598,
			"max":[
				0.08081821352243423,
				0.197756826877594,
				0.5012792944908142
			],
			"min":[
				-0.08089185506105423,
				0.03253495693206787,
				-0.05632895231246948
			],
			"type":"VEC3"
		},
		{
			"bufferView":9,
			"componentType":5126,
			"count":598,
			"type":"VEC3"
		},
		{
			"bufferView":10,
			"componentType":5126,
			"count":598,
			"type":"VEC2"
		},
		{
			"bufferView":11,
			"componentType":5123,
			"count":3072,
			"type":"SCALAR"
		},
		{
			"bufferView":12,
			"componentType":5126,
			"count":40,
			"max":[
				0.08644074201583862,
				0.20600968599319458,
				-0.128972128033638
			],
			"min":[
				-0.09004387259483337,
				0.12263895571231842,
				-0.21420839428901672
			],
			"type":"VEC3"
		},
		{
			"bufferView":13,
			"componentType":5126,
			"count":40,
			"type":"VEC3"
		},
		{
			"bufferView":14,
			"componentType":5126,
			"count":40,
			"type":"VEC2"
		},
		{
			"bufferView":15,
			"componentType":5123,
			"count":96,
			"type":"SCALAR"
		},
		{
			"bufferView":16,
			"componentType":5126,
			"count":84,
			"max":[
				0.08335191756486893,
				0.1956956535577774,
				0.7810013294219971
			],
			"min":[
				-0.07816071808338165,
				0.11031807214021683,
				-0.14639611542224884
			],
			"type":"VEC3"
		},
		{
			"bufferView":17,
			"componentType":5126,
			"count":84,
			"type":"VEC3"
		},
		{
			"bufferView":18,
			"componentType":5126,
			"count":84,
			"type":"VEC2"
		},
		{
			"bufferView":19,
			"componentType":5123,
			"count":192,
			"type":"SCALAR"
		},
		{
			"bufferView":20,
			"componentType":5126,
			"count":77,
			"max":[
				0.07313733547925949,
				0.12529724836349487,
				0.653502345085144
			],
			"min":[
				-0.062437426298856735,
				-0.17311470210552216,
				-0.21998819708824158
			],
			"type":"VEC3"
		},
		{
			"bufferView":21,
			"componentType":5126,
			"count":77,
			"type":"VEC3"
		},
		{
			"bufferView":22,
			"componentType":5126,
			"count":77,
			"type":"VEC2"
		},
		{
			"bufferView":23,
			"componentType":5123,
			"count":216,
			"type":"SCALAR"
		},
		{
			"bufferView":24,
			"componentType":5126,
			"count":2522,
			"max":[
				-0.009862269274890423,
				0.24782328307628632,
				-0.002225644653663039
			],
			"min":[
				-0.12640252709388733,
				-0.004664615262299776,
				-0.23489312827587128
			],
			"type":"VEC3"
		},
		{
			"bufferView":25,
			"componentType":5126,
			"count":2522,
			"type":"VEC3"
		},
		{
			"bufferView":26,
			"componentType":5126,
			"count":2522,
			"type":"VEC2"
		},
		{
			"bufferView":27,
			"componentType":5123,
			"count":3288,
			"type":"SCALAR"
		},
		{
			"bufferView":28,
			"componentType":5126,
			"count":122,
			"max":[
				0.12445080280303955,
				0.24855153262615204,
				-0.006656026467680931
			],
			"min":[
				0.03619088977575302,
				-0.0020703724585473537,
				-0.2369937002658844
			],
			"type":"VEC3"
		},
		{
			"bufferView":29,
			"componentType":5126,
			"count":122,
			"type":"VEC3"
		},
		{
			"bufferView":30,
			"componentType":5126,
			"count":122,
			"type":"VEC2"
		},
		{
			"bufferView":31,
			"componentType":5123,
			"count":126,
			"type":"SCALAR"
		}
	],
	"bufferViews":[
		{
			"buffer":0,
			"byteLength":408,
			"byteOffset":0,
			"target":34962
		},
		{
			"buffer":0,
			"byteLength":408,
			"byteOffset":408,
			"target":34962
		},
		{
			"buffer":0,
			"byteLength":272,
			"byteOffset":816,
			"target":34962
		},
		{
			"buffer":0,
			"byteLength":264,
			"byteOffset":1088,
			"target":34963
		},
		{
			"buffer":0,
			"byteLength":444,
			"byteOffset":1352,
			"target":34962
		},
		{
			"buffer":0,
			"byteLength":444,
			"byteOffset":1796,
			"target":34962
		},
		{
			"buffer":0,
			"byteLength":296,
			"byteOffset":2240,
			"target":34962
		},
		{
			"buffer":0,
			"byteLength":168,
			"byteOffset":2536,
			"target":34963
		},
		{
			"buffer":0,
			"byteLength":7176,
			"byteOffset":2704,
			"target":34962
		},
		{
			"buffer":0,
			"byteLength":7176,
			"byteOffset":9880,
			"target":34962
		},
		{
			"buffer":0,
			"byteLength":4784,
			"byteOffset":17056,
			"target":34962
		},
		{
			"buffer":0,
			"byteLength":6144,
			"byteOffset":21840,
			"target":34963
		},
		{
			"buffer":0,
			"byteLength":480,
			"byteOffset":27984,
			"target":34962
		},
		{
			"buffer":0,
			"byteLength":480,
			"byteOffset":28464,
			"target":34962
		},
		{
			"buffer":0,
			"byteLength":320,
			"byteOffset":28944,
			"target":34962
		},
		{
			"buffer":0,
			"byteLength":192,
			"byteOffset":29264,
			"target":34963
		},
		{
			"buffer":0,
			"byteLength":1008,
			"byteOffset":29456,
			"target":34962
		},
		{
			"buffer":0,
			"byteLength":1008,
			"byteOffset":30464,
			"target":34962
		},
		{
			"buffer":0,
			"byteLength":672,
			"byteOffset":31472,
			"target":34962
		},
		{
			"buffer":0,
			"byteLength":384,
			"byteOffset":32144,
			"target":34963
		},
		{
			"buffer":0,
			"byteLength":924,
			"byteOffset":32528,
			"target":34962
		},
		{
			"buffer":0,
			"byteLength":924,
			"byteOffset":33452,
			"target":34962
		},
		{
			"buffer":0,
			"byteLength":616,
			"byteOffset":34376,
			"target":34962
		},
		{
			"buffer":0,
			"byteLength":432,
			"byteOffset":34992,
			"target":34963
		},
		{
			"buffer":0,
			"byteLength":30264,
			"byteOffset":35424,
			"target":34962
		},
		{
			"buffer":0,
			"byteLength":30264,
			"byteOffset":65688,
			"target":34962
		},
		{
			"buffer":0,
			"byteLength":20176,
			"byteOffset":95952,
			"target":34962
		},
		{
			"buffer":0,
			"byteLength":6576,
			"byteOffset":116128,
			"target":34963
		},
		{
			"buffer":0,
			"byteLength":1464,
			"byteOffset":122704,
			"target":34962
		},
		{
			"buffer":0,
			"byteLength":1464,
			"byteOffset":124168,
			"target":34962
		},
		{
			"buffer":0,
			"byteLength":976,
			"byteOffset":125632,
			"target":34962
		},
		{
			"buffer":0,
			"byteLength":252,
			"byteOffset":126608,
			"target":34963
		}
	],
	"samplers":[
		{
			"magFilter":9729,
			"minFilter":9987
		}
	],
	"buffers":[
		{
			"byteLength":126860,
			"uri":"testgun1.bin"
		}
	]
}
