{
	"asset":{
		"generator":"Khronos glTF Blender I/O v4.5.47",
		"version":"2.0"
	},
	"extensionsUsed":[
		"KHR_materials_specular",
		"KHR_materials_ior"
	],
	"scene":0,
	"scenes":[
		{
			"name":"Scene",
			"nodes":[
				0,
				1,
				2
			]
		}
	],
	"nodes":[
		{
			"mesh":0,
			"name":"pig.001"
		},
		{
			"mesh":1,
			"name":"pig.002"
		},
		{
			"mesh":2,
			"name":"pig.003"
		}
	],
	"materials":[
		{
			"doubleSided":true,
			"extensions":{
				"KHR_materials_specular":{
					"specularColorFactor":[
						2.0,
						2.0,
						2.0
					]
				},
				"KHR_materials_ior":{
					"ior":1.4500000476837158
				}
			},
			"name":"body",
			"pbrMetallicRoughness":{
				"baseColorTexture":{
					"index":0
				},
				"metallicFactor":0
			}
		}
	],
	"meshes":[
		{
			"name":"Cube.001",
			"primitives":[
				{
					"attributes":{
						"POSITION":0,
						"NORMAL":1,
						"TEXCOORD_0":2
					},
					"indices":3,
					"material":0
				}
			]
		},
		{
			"name":"Cube.002",
			"primitives":[
				{
					"attributes":{
						"POSITION":4,
						"NORMAL":5,
						"TEXCOORD_0":6
					},
					"indices":7,
					"material":0
				}
			]
		},
		{
			"name":"Cube.003",
			"primitives":[
				{
					"attributes":{
						"POSITION":8,
						"NORMAL":9,
						"TEXCOORD_0":10
					},
					"indices":11,
					"material":0
				}
			]
		}
	],
	"textures":[
		{
			"sampler":0,
			"source":0
		}
	],
	"images":[
		{
			"mimeType":"image/png",
			"name":"pigdiff",
			"uri":"pigdiff.png"
		}
	],
	"accessors":[
		{
			"bufferView":0,
			"componentType":5126,
			"count":689,
			"max":[
				1.9020705223083496,
				1.7699190378189087,
				1.7760403156280518
			],
			"min":[
				-0.0010270263301208615,
				-1.4217069149017334,
				-3.2164783477783203
			],
			"type":"VEC3"
		},
		{
			"bufferView":1,
			"componentType":5126,
			"count":689,
			"type":"VEC3"
		},
		{
			"bufferView":2,
			"componentType":5126,
			"count":689,
			"type":"VEC2"
		},
		{
			"bufferView":3,
			"componentType":5123,
			"count":3906,
			"type":"SCALAR"
		},
		{
			"bufferView":4,
			"componentType":5126,
			"count":687,
			"max":[
				0.0008266636868938804,
				1.7698804140090942,
				1.7760379314422607
			],
			"min":[
				-1.9041216373443604,
				-1.4221307039260864,
				-3.2164783477783203
			],
			"type":"VEC3"
		},
		{
			"bufferView":5,
			"componentType":5126,
			"count":687,
			"type":"VEC3"
		},
		{
			"bufferView":6,
			"componentType":5126,
			"count":687,
			"type":"VEC2"
		},
		{
			"bufferView":7,
			"componentType":5123,
			"count":3900,
			"type":"SCALAR"
		},
		{
			"bufferView":8,
			"componentType":5126,
			"count":701,
			"max":[
				1.199497938156128,
				0.9604905843734741,
				2.2707107067108154
			],
			"min":[
				-1.1995019912719727,
				-0.6858668327331543,
				1.700107216835022
			],
			"type":"VEC3"
		},
		{
			"bufferView":9,
			"componentType":5126,
			"count":701,
			"type":"VEC3"
		},
		{
			"bufferView":10,
			"componentType":5126,
			"count":701,
			"type":"VEC2"
		},
		{
			"bufferView":11,
			"componentType":5123,
			"count":4080,
			"type":"SCALAR"
		}
	],
	"bufferViews":[
		{
			"buffer":0,
			"byteLength":8268,
			"byteOffset":0,
			"target":34962
		},
		{
			"buffer":0,
			"byteLength":8268,
			"byteOffset":8268,
			"target":34962
		},
		{
			"buffer":0,
			"byteLength":5512,
			"byteOffset":16536,
			"target":34962
		},
		{
			"buffer":0,
			"byteLength":7812,
			"byteOffset":22048,
			"target":34963
		},
		{
			"buffer":0,
			"byteLength":8244,
			"byteOffset":29860,
			"target":34962
		},
		{
			"buffer":0,
			"byteLength":8244,
			"byteOffset":38104,
			"target":34962
		},
		{
			"buffer":0,
			"byteLength":5496,
			"byteOffset":46348,
			"target":34962
		},
		{
			"buffer":0,
			"byteLength":7800,
			"byteOffset":51844,
			"target":34963
		},
		{
			"buffer":0,
			"byteLength":8412,
			"byteOffset":59644,
			"target":34962
		},
		{
			"buffer":0,
			"byteLength":8412,
			"byteOffset":68056,
			"target":34962
		},
		{
			"buffer":0,
			"byteLength":5608,
			"byteOffset":76468,
			"target":34962
		},
		{
			"buffer":0,
			"byteLength":8160,
			"byteOffset":82076,
			"target":34963
		}
	],
	"samplers":[
		{
			"magFilter":9729,
			"minFilter":9987
		}
	],
	"buffers":[
		{
			"byteLength":90236,
			"uri":"pigshatter2.bin"
		}
	]
}
