{
	"asset":{
		"generator":"Khronos glTF Blender I/O v4.5.47",
		"version":"2.0"
	},
	"extensionsUsed":[
		"KHR_materials_specular",
		"KHR_materials_ior"
	],
	"scene":0,
	"scenes":[
		{
			"name":"Scene",
			"nodes":[
				0,
				1,
				2,
				3,
				4,
				5,
				6,
				7,
				8,
				9,
				10,
				11,
				12,
				13,
				14
			]
		}
	],
	"nodes":[
		{
			"name":"pig.014"
		},
		{
			"name":"pig.001"
		},
		{
			"mesh":0,
			"name":"pig.002"
		},
		{
			"mesh":1,
			"name":"pig.003"
		},
		{
			"mesh":2,
			"name":"pig.004"
		},
		{
			"mesh":3,
			"name":"pig.005"
		},
		{
			"mesh":4,
			"name":"pig.006"
		},
		{
			"mesh":5,
			"name":"pig.007"
		},
		{
			"mesh":6,
			"name":"pig.008"
		},
		{
			"mesh":7,
			"name":"pig.009"
		},
		{
			"mesh":8,
			"name":"pig.010"
		},
		{
			"mesh":9,
			"name":"pig.011"
		},
		{
			"mesh":10,
			"name":"pig.012"
		},
		{
			"mesh":11,
			"name":"pig.013"
		},
		{
			"mesh":12,
			"name":"pig.015"
		}
	],
	"materials":[
		{
			"doubleSided":true,
			"extensions":{
				"KHR_materials_specular":{
					"specularColorFactor":[
						2.0,
						2.0,
						2.0
					]
				},
				"KHR_materials_ior":{
					"ior":1.4500000476837158
				}
			},
			"name":"body",
			"pbrMetallicRoughness":{
				"baseColorTexture":{
					"index":0
				},
				"metallicFactor":0
			}
		}
	],
	"meshes":[
		{
			"name":"Cube.017",
			"primitives":[
				{
					"attributes":{
						"POSITION":0,
						"NORMAL":1,
						"TEXCOORD_0":2
					},
					"indices":3,
					"material":0
				}
			]
		},
		{
			"name":"Cube.018",
			"primitives":[
				{
					"attributes":{
						"POSITION":4,
						"NORMAL":5,
						"TEXCOORD_0":6
					},
					"indices":7,
					"material":0
				}
			]
		},
		{
			"name":"Cube.019",
			"primitives":[
				{
					"attributes":{
						"POSITION":8,
						"NORMAL":9,
						"TEXCOORD_0":10
					},
					"indices":11,
					"material":0
				}
			]
		},
		{
			"name":"Cube.020",
			"primitives":[
				{
					"attributes":{
						"POSITION":12,
						"NORMAL":13,
						"TEXCOORD_0":14
					},
					"indices":15,
					"material":0
				}
			]
		},
		{
			"name":"Cube.021",
			"primitives":[
				{
					"attributes":{
						"POSITION":16,
						"NORMAL":17,
						"TEXCOORD_0":18
					},
					"indices":19,
					"material":0
				}
			]
		},
		{
			"name":"Cube.022",
			"primitives":[
				{
					"attributes":{
						"POSITION":20,
						"NORMAL":21,
						"TEXCOORD_0":22
					},
					"indices":23,
					"material":0
				}
			]
		},
		{
			"name":"Cube.023",
			"primitives":[
				{
					"attributes":{
						"POSITION":24,
						"NORMAL":25,
						"TEXCOORD_0":26
					},
					"indices":27,
					"material":0
				}
			]
		},
		{
			"name":"Cube.024",
			"primitives":[
				{
					"attributes":{
						"POSITION":28,
						"NORMAL":29,
						"TEXCOORD_0":30
					},
					"indices":31,
					"material":0
				}
			]
		},
		{
			"name":"Cube.025",
			"primitives":[
				{
					"attributes":{
						"POSITION":32,
						"NORMAL":33,
						"TEXCOORD_0":34
					},
					"indices":35,
					"material":0
				}
			]
		},
		{
			"name":"Cube.026",
			"primitives":[
				{
					"attributes":{
						"POSITION":36,
						"NORMAL":37,
						"TEXCOORD_0":38
					},
					"indices":39,
					"material":0
				}
			]
		},
		{
			"name":"Cube.027",
			"primitives":[
				{
					"attributes":{
						"POSITION":40,
						"NORMAL":41,
						"TEXCOORD_0":42
					},
					"indices":43,
					"material":0
				}
			]
		},
		{
			"name":"Cube.028",
			"primitives":[
				{
					"attributes":{
						"POSITION":44,
						"NORMAL":45,
						"TEXCOORD_0":46
					},
					"indices":47,
					"material":0
				}
			]
		},
		{
			"name":"Cube.029",
			"primitives":[
				{
					"attributes":{
						"POSITION":48,
						"NORMAL":49,
						"TEXCOORD_0":50
					},
					"indices":51,
					"material":0
				}
			]
		}
	],
	"textures":[
		{
			"sampler":0,
			"source":0
		}
	],
	"images":[
		{
			"mimeType":"image/png",
			"name":"pigdiff2",
			"uri":"pigdiff2.png"
		}
	],
	"accessors":[
		{
			"bufferView":0,
			"componentType":5126,
			"count":204,
			"max":[
				0.8628305196762085,
				1.5542405843734741,
				1.0806927680969238
			],
			"min":[
				-1.040266990661621,
				-1.4108344316482544,
				-2.0771729946136475
			],
			"type":"VEC3"
		},
		{
			"bufferView":1,
			"componentType":5126,
			"count":204,
			"type":"VEC3"
		},
		{
			"bufferView":2,
			"componentType":5126,
			"count":204,
			"type":"VEC2"
		},
		{
			"bufferView":3,
			"componentType":5123,
			"count":984,
			"type":"SCALAR"
		},
		{
			"bufferView":4,
			"componentType":5126,
			"count":76,
			"max":[
				0.5422017574310303,
				1.6563174724578857,
				1.1594759225845337
			],
			"min":[
				-1.3607239723205566,
				-0.8522908687591553,
				-0.9775506258010864
			],
			"type":"VEC3"
		},
		{
			"bufferView":5,
			"componentType":5126,
			"count":76,
			"type":"VEC3"
		},
		{
			"bufferView":6,
			"componentType":5126,
			"count":76,
			"type":"VEC2"
		},
		{
			"bufferView":7,
			"componentType":5123,
			"count":324,
			"type":"SCALAR"
		},
		{
			"bufferView":8,
			"componentType":5126,
			"count":272,
			"max":[
				1.1260812282562256,
				1.5322023630142212,
				1.4640986919403076
			],
			"min":[
				-0.5418141484260559,
				-1.2706987857818604,
				-0.37055444717407227
			],
			"type":"VEC3"
		},
		{
			"bufferView":9,
			"componentType":5126,
			"count":272,
			"type":"VEC3"
		},
		{
			"bufferView":10,
			"componentType":5126,
			"count":272,
			"type":"VEC2"
		},
		{
			"bufferView":11,
			"componentType":5123,
			"count":1464,
			"type":"SCALAR"
		},
		{
			"bufferView":12,
			"componentType":5126,
			"count":334,
			"max":[
				0.5729186534881592,
				1.5645737648010254,
				2.141827344894409
			],
			"min":[
				-1.332026720046997,
				-1.2840125560760498,
				-0.532027006149292
			],
			"type":"VEC3"
		},
		{
			"bufferView":13,
			"componentType":5126,
			"count":334,
			"type":"VEC3"
		},
		{
			"bufferView":14,
			"componentType":5126,
			"count":334,
			"type":"VEC2"
		},
		{
			"bufferView":15,
			"componentType":5123,
			"count":1812,
			"type":"SCALAR"
		},
		{
			"bufferView":16,
			"componentType":5126,
			"count":75,
			"max":[
				1.1944602727890015,
				1.249207854270935,
				1.0160866975784302
			],
			"min":[
				-0.7088745832443237,
				-1.7463093996047974,
				-1.0570400953292847
			],
			"type":"VEC3"
		},
		{
			"bufferView":17,
			"componentType":5126,
			"count":75,
			"type":"VEC3"
		},
		{
			"bufferView":18,
			"componentType":5126,
			"count":75,
			"type":"VEC2"
		},
		{
			"bufferView":19,
			"componentType":5123,
			"count":288,
			"type":"SCALAR"
		},
		{
			"bufferView":20,
			"componentType":5126,
			"count":179,
			"max":[
				1.063742995262146,
				1.6413310766220093,
				0.8704963326454163
			],
			"min":[
				-0.840410590171814,
				-1.2560161352157593,
				-1.4481658935546875
			],
			"type":"VEC3"
		},
		{
			"bufferView":21,
			"componentType":5126,
			"count":179,
			"type":"VEC3"
		},
		{
			"bufferView":22,
			"componentType":5126,
			"count":179,
			"type":"VEC2"
		},
		{
			"bufferView":23,
			"componentType":5123,
			"count":852,
			"type":"SCALAR"
		},
		{
			"bufferView":24,
			"componentType":5126,
			"count":701,
			"max":[
				1.1979502439498901,
				0.9277087450027466,
				0.19409608840942383
			],
			"min":[
				-1.2010496854782104,
				-0.7186486721038818,
				-0.37650740146636963
			],
			"type":"VEC3"
		},
		{
			"bufferView":25,
			"componentType":5126,
			"count":701,
			"type":"VEC3"
		},
		{
			"bufferView":26,
			"componentType":5126,
			"count":701,
			"type":"VEC2"
		},
		{
			"bufferView":27,
			"componentType":5123,
			"count":4080,
			"type":"SCALAR"
		},
		{
			"bufferView":28,
			"componentType":5126,
			"count":51,
			"max":[
				0.5900821089744568,
				0.2179248332977295,
				0.2782100439071655
			],
			"min":[
				-0.25099289417266846,
				-0.46506714820861816,
				-0.26272010803222656
			],
			"type":"VEC3"
		},
		{
			"bufferView":29,
			"componentType":5126,
			"count":51,
			"type":"VEC3"
		},
		{
			"bufferView":30,
			"componentType":5126,
			"count":51,
			"type":"VEC2"
		},
		{
			"bufferView":31,
			"componentType":5123,
			"count":276,
			"type":"SCALAR"
		},
		{
			"bufferView":32,
			"componentType":5126,
			"count":51,
			"max":[
				0.24853277206420898,
				0.22312545776367188,
				0.313399076461792
			],
			"min":[
				-0.5655496120452881,
				-0.48271632194519043,
				-0.3106968402862549
			],
			"type":"VEC3"
		},
		{
			"bufferView":33,
			"componentType":5126,
			"count":51,
			"type":"VEC3"
		},
		{
			"bufferView":34,
			"componentType":5126,
			"count":51,
			"type":"VEC2"
		},
		{
			"bufferView":35,
			"componentType":5123,
			"count":276,
			"type":"SCALAR"
		},
		{
			"bufferView":36,
			"componentType":5126,
			"count":75,
			"max":[
				0.4292118549346924,
				0.26627612113952637,
				0.3472774028778076
			],
			"min":[
				-0.5042306780815125,
				-0.178147554397583,
				-0.44739919900894165
			],
			"type":"VEC3"
		},
		{
			"bufferView":37,
			"componentType":5126,
			"count":75,
			"type":"VEC3"
		},
		{
			"bufferView":38,
			"componentType":5126,
			"count":75,
			"type":"VEC2"
		},
		{
			"bufferView":39,
			"componentType":5123,
			"count":408,
			"type":"SCALAR"
		},
		{
			"bufferView":40,
			"componentType":5126,
			"count":75,
			"max":[
				0.5007812976837158,
				0.2714334726333618,
				0.34859299659729004
			],
			"min":[
				-0.4255107641220093,
				-0.17305326461791992,
				-0.44749903678894043
			],
			"type":"VEC3"
		},
		{
			"bufferView":41,
			"componentType":5126,
			"count":75,
			"type":"VEC3"
		},
		{
			"bufferView":42,
			"componentType":5126,
			"count":75,
			"type":"VEC2"
		},
		{
			"bufferView":43,
			"componentType":5123,
			"count":408,
			"type":"SCALAR"
		},
		{
			"bufferView":44,
			"componentType":5126,
			"count":49,
			"max":[
				0.4638167917728424,
				0.23342692852020264,
				0.36744678020477295
			],
			"min":[
				-0.3948577046394348,
				-0.17055296897888184,
				-0.3213663101196289
			],
			"type":"VEC3"
		},
		{
			"bufferView":45,
			"componentType":5126,
			"count":49,
			"type":"VEC3"
		},
		{
			"bufferView":46,
			"componentType":5126,
			"count":49,
			"type":"VEC2"
		},
		{
			"bufferView":47,
			"componentType":5123,
			"count":264,
			"type":"SCALAR"
		},
		{
			"bufferView":48,
			"componentType":5126,
			"count":49,
			"max":[
				0.39830756187438965,
				0.23076415061950684,
				0.3674424886703491
			],
			"min":[
				-0.4672383964061737,
				-0.17191219329833984,
				-0.3205573558807373
			],
			"type":"VEC3"
		},
		{
			"bufferView":49,
			"componentType":5126,
			"count":49,
			"type":"VEC3"
		},
		{
			"bufferView":50,
			"componentType":5126,
			"count":49,
			"type":"VEC2"
		},
		{
			"bufferView":51,
			"componentType":5123,
			"count":264,
			"type":"SCALAR"
		}
	],
	"bufferViews":[
		{
			"buffer":0,
			"byteLength":2448,
			"byteOffset":0,
			"target":34962
		},
		{
			"buffer":0,
			"byteLength":2448,
			"byteOffset":2448,
			"target":34962
		},
		{
			"buffer":0,
			"byteLength":1632,
			"byteOffset":4896,
			"target":34962
		},
		{
			"buffer":0,
			"byteLength":1968,
			"byteOffset":6528,
			"target":34963
		},
		{
			"buffer":0,
			"byteLength":912,
			"byteOffset":8496,
			"target":34962
		},
		{
			"buffer":0,
			"byteLength":912,
			"byteOffset":9408,
			"target":34962
		},
		{
			"buffer":0,
			"byteLength":608,
			"byteOffset":10320,
			"target":34962
		},
		{
			"buffer":0,
			"byteLength":648,
			"byteOffset":10928,
			"target":34963
		},
		{
			"buffer":0,
			"byteLength":3264,
			"byteOffset":11576,
			"target":34962
		},
		{
			"buffer":0,
			"byteLength":3264,
			"byteOffset":14840,
			"target":34962
		},
		{
			"buffer":0,
			"byteLength":2176,
			"byteOffset":18104,
			"target":34962
		},
		{
			"buffer":0,
			"byteLength":2928,
			"byteOffset":20280,
			"target":34963
		},
		{
			"buffer":0,
			"byteLength":4008,
			"byteOffset":23208,
			"target":34962
		},
		{
			"buffer":0,
			"byteLength":4008,
			"byteOffset":27216,
			"target":34962
		},
		{
			"buffer":0,
			"byteLength":2672,
			"byteOffset":31224,
			"target":34962
		},
		{
			"buffer":0,
			"byteLength":3624,
			"byteOffset":33896,
			"target":34963
		},
		{
			"buffer":0,
			"byteLength":900,
			"byteOffset":37520,
			"target":34962
		},
		{
			"buffer":0,
			"byteLength":900,
			"byteOffset":38420,
			"target":34962
		},
		{
			"buffer":0,
			"byteLength":600,
			"byteOffset":39320,
			"target":34962
		},
		{
			"buffer":0,
			"byteLength":576,
			"byteOffset":39920,
			"target":34963
		},
		{
			"buffer":0,
			"byteLength":2148,
			"byteOffset":40496,
			"target":34962
		},
		{
			"buffer":0,
			"byteLength":2148,
			"byteOffset":42644,
			"target":34962
		},
		{
			"buffer":0,
			"byteLength":1432,
			"byteOffset":44792,
			"target":34962
		},
		{
			"buffer":0,
			"byteLength":1704,
			"byteOffset":46224,
			"target":34963
		},
		{
			"buffer":0,
			"byteLength":8412,
			"byteOffset":47928,
			"target":34962
		},
		{
			"buffer":0,
			"byteLength":8412,
			"byteOffset":56340,
			"target":34962
		},
		{
			"buffer":0,
			"byteLength":5608,
			"byteOffset":64752,
			"target":34962
		},
		{
			"buffer":0,
			"byteLength":8160,
			"byteOffset":70360,
			"target":34963
		},
		{
			"buffer":0,
			"byteLength":612,
			"byteOffset":78520,
			"target":34962
		},
		{
			"buffer":0,
			"byteLength":612,
			"byteOffset":79132,
			"target":34962
		},
		{
			"buffer":0,
			"byteLength":408,
			"byteOffset":79744,
			"target":34962
		},
		{
			"buffer":0,
			"byteLength":552,
			"byteOffset":80152,
			"target":34963
		},
		{
			"buffer":0,
			"byteLength":612,
			"byteOffset":80704,
			"target":34962
		},
		{
			"buffer":0,
			"byteLength":612,
			"byteOffset":81316,
			"target":34962
		},
		{
			"buffer":0,
			"byteLength":408,
			"byteOffset":81928,
			"target":34962
		},
		{
			"buffer":0,
			"byteLength":552,
			"byteOffset":82336,
			"target":34963
		},
		{
			"buffer":0,
			"byteLength":900,
			"byteOffset":82888,
			"target":34962
		},
		{
			"buffer":0,
			"byteLength":900,
			"byteOffset":83788,
			"target":34962
		},
		{
			"buffer":0,
			"byteLength":600,
			"byteOffset":84688,
			"target":34962
		},
		{
			"buffer":0,
			"byteLength":816,
			"byteOffset":85288,
			"target":34963
		},
		{
			"buffer":0,
			"byteLength":900,
			"byteOffset":86104,
			"target":34962
		},
		{
			"buffer":0,
			"byteLength":900,
			"byteOffset":87004,
			"target":34962
		},
		{
			"buffer":0,
			"byteLength":600,
			"byteOffset":87904,
			"target":34962
		},
		{
			"buffer":0,
			"byteLength":816,
			"byteOffset":88504,
			"target":34963
		},
		{
			"buffer":0,
			"byteLength":588,
			"byteOffset":89320,
			"target":34962
		},
		{
			"buffer":0,
			"byteLength":588,
			"byteOffset":89908,
			"target":34962
		},
		{
			"buffer":0,
			"byteLength":392,
			"byteOffset":90496,
			"target":34962
		},
		{
			"buffer":0,
			"byteLength":528,
			"byteOffset":90888,
			"target":34963
		},
		{
			"buffer":0,
			"byteLength":588,
			"byteOffset":91416,
			"target":34962
		},
		{
			"buffer":0,
			"byteLength":588,
			"byteOffset":92004,
			"target":34962
		},
		{
			"buffer":0,
			"byteLength":392,
			"byteOffset":92592,
			"target":34962
		},
		{
			"buffer":0,
			"byteLength":528,
			"byteOffset":92984,
			"target":34963
		}
	],
	"samplers":[
		{
			"magFilter":9729,
			"minFilter":9987
		}
	],
	"buffers":[
		{
			"byteLength":93512,
			"uri":"pigshatter4.bin"
		}
	]
}
