{
	"asset":{
		"generator":"Khronos glTF Blender I/O v4.2.57",
		"version":"2.0"
	},
	"extensionsUsed":[
		"KHR_materials_specular",
		"KHR_materials_ior"
	],
	"scene":0,
	"scenes":[
		{
			"name":"Scene",
			"nodes":[
				0,
				1,
				2
			]
		}
	],
	"nodes":[
		{
			"mesh":0,
			"name":"pig"
		},
		{
			"mesh":1,
			"name":"pig.001",
			"translation":[
				-0.0036351163871586323,
				1.4273775815963745,
				2.2475178241729736
			]
		},
		{
			"mesh":2,
			"name":"pig.002",
			"translation":[
				-0.023412209004163742,
				1.4059709310531616,
				-2.4003777503967285
			]
		}
	],
	"materials":[
		{
			"doubleSided":true,
			"extensions":{
				"KHR_materials_specular":{
					"specularColorFactor":[
						2.0,
						2.0,
						2.0
					]
				},
				"KHR_materials_ior":{
					"ior":1.4500000476837158
				}
			},
			"name":"body.001",
			"pbrMetallicRoughness":{
				"baseColorFactor":[
					0.8000000715255737,
					0.6253456473350525,
					0.2332630306482315,
					1
				],
				"metallicFactor":0,
				"roughnessFactor":0.36060604453086853
			}
		}
	],
	"meshes":[
		{
			"name":"Cube.004",
			"primitives":[
				{
					"attributes":{
						"POSITION":0,
						"NORMAL":1,
						"TEXCOORD_0":2
					},
					"indices":3,
					"material":0
				}
			]
		},
		{
			"name":"Cube.001",
			"primitives":[
				{
					"attributes":{
						"POSITION":4,
						"NORMAL":5,
						"TEXCOORD_0":6
					},
					"indices":7,
					"material":0
				}
			]
		},
		{
			"name":"Cube.002",
			"primitives":[
				{
					"attributes":{
						"POSITION":8,
						"NORMAL":9,
						"TEXCOORD_0":10
					},
					"indices":11,
					"material":0
				}
			]
		}
	],
	"accessors":[
		{
			"bufferView":0,
			"componentType":5126,
			"count":1482,
			"max":[
				1.9010422229766846,
				3.1873726844787598,
				1.7573105096817017
			],
			"min":[
				-1.9051499366760254,
				-0.004676999058574438,
				-0.9685384631156921
			],
			"type":"VEC3"
		},
		{
			"bufferView":1,
			"componentType":5126,
			"count":1482,
			"type":"VEC3"
		},
		{
			"bufferView":2,
			"componentType":5126,
			"count":1482,
			"type":"VEC2"
		},
		{
			"bufferView":3,
			"componentType":5123,
			"count":7056,
			"type":"SCALAR"
		},
		{
			"bufferView":4,
			"componentType":5126,
			"count":2039,
			"max":[
				1.3410428762435913,
				1.1881877183914185,
				0.22020936012268066
			],
			"min":[
				-1.3363292217254639,
				-0.8504667282104492,
				-0.5401867628097534
			],
			"type":"VEC3"
		},
		{
			"bufferView":5,
			"componentType":5126,
			"count":2039,
			"type":"VEC3"
		},
		{
			"bufferView":6,
			"componentType":5126,
			"count":2039,
			"type":"VEC2"
		},
		{
			"bufferView":7,
			"componentType":5123,
			"count":8880,
			"type":"SCALAR"
		},
		{
			"bufferView":8,
			"componentType":5126,
			"count":1948,
			"max":[
				1.8899184465408325,
				1.7611833810806274,
				1.6455051898956299
			],
			"min":[
				-1.8471366167068481,
				-1.400955319404602,
				-0.6190841197967529
			],
			"type":"VEC3"
		},
		{
			"bufferView":9,
			"componentType":5126,
			"count":1948,
			"type":"VEC3"
		},
		{
			"bufferView":10,
			"componentType":5126,
			"count":1948,
			"type":"VEC2"
		},
		{
			"bufferView":11,
			"componentType":5123,
			"count":8784,
			"type":"SCALAR"
		}
	],
	"bufferViews":[
		{
			"buffer":0,
			"byteLength":17784,
			"byteOffset":0,
			"target":34962
		},
		{
			"buffer":0,
			"byteLength":17784,
			"byteOffset":17784,
			"target":34962
		},
		{
			"buffer":0,
			"byteLength":11856,
			"byteOffset":35568,
			"target":34962
		},
		{
			"buffer":0,
			"byteLength":14112,
			"byteOffset":47424,
			"target":34963
		},
		{
			"buffer":0,
			"byteLength":24468,
			"byteOffset":61536,
			"target":34962
		},
		{
			"buffer":0,
			"byteLength":24468,
			"byteOffset":86004,
			"target":34962
		},
		{
			"buffer":0,
			"byteLength":16312,
			"byteOffset":110472,
			"target":34962
		},
		{
			"buffer":0,
			"byteLength":17760,
			"byteOffset":126784,
			"target":34963
		},
		{
			"buffer":0,
			"byteLength":23376,
			"byteOffset":144544,
			"target":34962
		},
		{
			"buffer":0,
			"byteLength":23376,
			"byteOffset":167920,
			"target":34962
		},
		{
			"buffer":0,
			"byteLength":15584,
			"byteOffset":191296,
			"target":34962
		},
		{
			"buffer":0,
			"byteLength":17568,
			"byteOffset":206880,
			"target":34963
		}
	],
	"buffers":[
		{
			"byteLength":224448,
			"uri":"pigshatter3ahh.bin"
		}
	]
}
