{
	"asset":{
		"generator":"Khronos glTF Blender I/O v4.5.47",
		"version":"2.0"
	},
	"extensionsUsed":[
		"KHR_materials_specular",
		"KHR_materials_ior"
	],
	"scene":0,
	"scenes":[
		{
			"name":"Scene",
			"nodes":[
				0,
				1,
				2,
				3,
				4,
				5,
				6,
				7,
				8,
				9,
				10,
				11,
				12,
				13
			]
		}
	],
	"nodes":[
		{
			"mesh":0,
			"name":"pig.001"
		},
		{
			"name":"pig.002"
		},
		{
			"mesh":1,
			"name":"pig.003"
		},
		{
			"mesh":2,
			"name":"pig.004"
		},
		{
			"mesh":3,
			"name":"pig.005"
		},
		{
			"mesh":4,
			"name":"pig.006"
		},
		{
			"mesh":5,
			"name":"pig.007"
		},
		{
			"mesh":6,
			"name":"pig.008"
		},
		{
			"mesh":7,
			"name":"pig.009"
		},
		{
			"mesh":8,
			"name":"pig.010"
		},
		{
			"mesh":9,
			"name":"pig.011"
		},
		{
			"mesh":10,
			"name":"pig.012"
		},
		{
			"mesh":11,
			"name":"pig.013"
		},
		{
			"mesh":12,
			"name":"pig.014"
		}
	],
	"materials":[
		{
			"doubleSided":true,
			"extensions":{
				"KHR_materials_specular":{
					"specularColorFactor":[
						2.0,
						2.0,
						2.0
					]
				},
				"KHR_materials_ior":{
					"ior":1.4500000476837158
				}
			},
			"name":"body",
			"pbrMetallicRoughness":{
				"baseColorTexture":{
					"index":0
				},
				"metallicFactor":0
			}
		}
	],
	"meshes":[
		{
			"name":"Cube.001",
			"primitives":[
				{
					"attributes":{
						"POSITION":0,
						"NORMAL":1,
						"TEXCOORD_0":2
					},
					"indices":3,
					"material":0
				}
			]
		},
		{
			"name":"Cube.003",
			"primitives":[
				{
					"attributes":{
						"POSITION":4,
						"NORMAL":5,
						"TEXCOORD_0":6
					},
					"indices":7,
					"material":0
				}
			]
		},
		{
			"name":"Cube.005",
			"primitives":[
				{
					"attributes":{
						"POSITION":8,
						"NORMAL":9,
						"TEXCOORD_0":10
					},
					"indices":11,
					"material":0
				}
			]
		},
		{
			"name":"Cube.006",
			"primitives":[
				{
					"attributes":{
						"POSITION":12,
						"NORMAL":13,
						"TEXCOORD_0":14
					},
					"indices":15,
					"material":0
				}
			]
		},
		{
			"name":"Cube.007",
			"primitives":[
				{
					"attributes":{
						"POSITION":16,
						"NORMAL":17,
						"TEXCOORD_0":18
					},
					"indices":19,
					"material":0
				}
			]
		},
		{
			"name":"Cube.008",
			"primitives":[
				{
					"attributes":{
						"POSITION":20,
						"NORMAL":21,
						"TEXCOORD_0":22
					},
					"indices":23,
					"material":0
				}
			]
		},
		{
			"name":"Cube.009",
			"primitives":[
				{
					"attributes":{
						"POSITION":24,
						"NORMAL":25,
						"TEXCOORD_0":26
					},
					"indices":27,
					"material":0
				}
			]
		},
		{
			"name":"Cube.010",
			"primitives":[
				{
					"attributes":{
						"POSITION":28,
						"NORMAL":29,
						"TEXCOORD_0":30
					},
					"indices":31,
					"material":0
				}
			]
		},
		{
			"name":"Cube.011",
			"primitives":[
				{
					"attributes":{
						"POSITION":32,
						"NORMAL":33,
						"TEXCOORD_0":34
					},
					"indices":35,
					"material":0
				}
			]
		},
		{
			"name":"Cube.012",
			"primitives":[
				{
					"attributes":{
						"POSITION":36,
						"NORMAL":37,
						"TEXCOORD_0":38
					},
					"indices":39,
					"material":0
				}
			]
		},
		{
			"name":"Cube.013",
			"primitives":[
				{
					"attributes":{
						"POSITION":40,
						"NORMAL":41,
						"TEXCOORD_0":42
					},
					"indices":43,
					"material":0
				}
			]
		},
		{
			"name":"Cube.014",
			"primitives":[
				{
					"attributes":{
						"POSITION":44,
						"NORMAL":45,
						"TEXCOORD_0":46
					},
					"indices":47,
					"material":0
				}
			]
		},
		{
			"name":"Cube.015",
			"primitives":[
				{
					"attributes":{
						"POSITION":48,
						"NORMAL":49,
						"TEXCOORD_0":50
					},
					"indices":51,
					"material":0
				}
			]
		}
	],
	"textures":[
		{
			"sampler":0,
			"source":0
		}
	],
	"images":[
		{
			"mimeType":"image/png",
			"name":"pigdiff",
			"uri":"pigdiff.png"
		}
	],
	"accessors":[
		{
			"bufferView":0,
			"componentType":5126,
			"count":204,
			"max":[
				1.9020705223083496,
				1.7698804140090942,
				1.7760403156280518
			],
			"min":[
				-0.0010270263301208615,
				-1.1951946020126343,
				-1.3818254470825195
			],
			"type":"VEC3"
		},
		{
			"bufferView":1,
			"componentType":5126,
			"count":204,
			"type":"VEC3"
		},
		{
			"bufferView":2,
			"componentType":5126,
			"count":204,
			"type":"VEC2"
		},
		{
			"bufferView":3,
			"componentType":5123,
			"count":984,
			"type":"SCALAR"
		},
		{
			"bufferView":4,
			"componentType":5126,
			"count":701,
			"max":[
				1.199497938156128,
				0.9604905843734741,
				2.2707107067108154
			],
			"min":[
				-1.1995019912719727,
				-0.6858668327331543,
				1.700107216835022
			],
			"type":"VEC3"
		},
		{
			"bufferView":5,
			"componentType":5126,
			"count":701,
			"type":"VEC3"
		},
		{
			"bufferView":6,
			"componentType":5126,
			"count":701,
			"type":"VEC2"
		},
		{
			"bufferView":7,
			"componentType":5123,
			"count":4080,
			"type":"SCALAR"
		},
		{
			"bufferView":8,
			"componentType":5126,
			"count":76,
			"max":[
				1.9020705223083496,
				1.2829715013504028,
				0.07749941945075989
			],
			"min":[
				-0.0008552061626687646,
				-1.2256368398666382,
				-2.0595271587371826
			],
			"type":"VEC3"
		},
		{
			"bufferView":9,
			"componentType":5126,
			"count":76,
			"type":"VEC3"
		},
		{
			"bufferView":10,
			"componentType":5126,
			"count":76,
			"type":"VEC2"
		},
		{
			"bufferView":11,
			"componentType":5123,
			"count":324,
			"type":"SCALAR"
		},
		{
			"bufferView":12,
			"componentType":5126,
			"count":272,
			"max":[
				1.6669864654541016,
				1.697907567024231,
				-1.3818249702453613
			],
			"min":[
				-0.0009088461520150304,
				-1.1049935817718506,
				-3.216478109359741
			],
			"type":"VEC3"
		},
		{
			"bufferView":13,
			"componentType":5126,
			"count":272,
			"type":"VEC3"
		},
		{
			"bufferView":14,
			"componentType":5126,
			"count":272,
			"type":"VEC2"
		},
		{
			"bufferView":15,
			"componentType":5123,
			"count":1464,
			"type":"SCALAR"
		},
		{
			"bufferView":16,
			"componentType":5126,
			"count":51,
			"max":[
				-0.5103361010551453,
				1.7428423166275024,
				1.3675918579101562
			],
			"min":[
				-1.3514111042022705,
				1.0598503351211548,
				0.8266617059707642
			],
			"type":"VEC3"
		},
		{
			"bufferView":17,
			"componentType":5126,
			"count":51,
			"type":"VEC3"
		},
		{
			"bufferView":18,
			"componentType":5126,
			"count":51,
			"type":"VEC2"
		},
		{
			"bufferView":19,
			"componentType":5123,
			"count":276,
			"type":"SCALAR"
		},
		{
			"bufferView":20,
			"componentType":5126,
			"count":179,
			"max":[
				3.19209648296237e-05,
				1.7021526098251343,
				1.7760379314422607
			],
			"min":[
				-1.9041216373443604,
				-1.1951946020126343,
				-0.5426243543624878
			],
			"type":"VEC3"
		},
		{
			"bufferView":21,
			"componentType":5126,
			"count":179,
			"type":"VEC3"
		},
		{
			"bufferView":22,
			"componentType":5126,
			"count":179,
			"type":"VEC2"
		},
		{
			"bufferView":23,
			"componentType":5123,
			"count":852,
			"type":"SCALAR"
		},
		{
			"bufferView":24,
			"componentType":5126,
			"count":75,
			"max":[
				-0.0007868291577324271,
				1.7698804140090942,
				0.2454729974269867
			],
			"min":[
				-1.9041216373443604,
				-1.2256368398666382,
				-1.8276537656784058
			],
			"type":"VEC3"
		},
		{
			"bufferView":25,
			"componentType":5126,
			"count":75,
			"type":"VEC3"
		},
		{
			"bufferView":26,
			"componentType":5126,
			"count":75,
			"type":"VEC2"
		},
		{
			"bufferView":27,
			"componentType":5123,
			"count":288,
			"type":"SCALAR"
		},
		{
			"bufferView":28,
			"componentType":5126,
			"count":334,
			"max":[
				0.0008266636868938804,
				1.622949481010437,
				-0.5426239967346191
			],
			"min":[
				-1.9041186571121216,
				-1.2256368398666382,
				-3.2164783477783203
			],
			"type":"VEC3"
		},
		{
			"bufferView":29,
			"componentType":5126,
			"count":334,
			"type":"VEC3"
		},
		{
			"bufferView":30,
			"componentType":5126,
			"count":334,
			"type":"VEC2"
		},
		{
			"bufferView":31,
			"componentType":5123,
			"count":1812,
			"type":"SCALAR"
		},
		{
			"bufferView":32,
			"componentType":5126,
			"count":75,
			"max":[
				1.3712520599365234,
				-0.977283239364624,
				1.3822641372680664
			],
			"min":[
				0.4378095269203186,
				-1.4217069149017334,
				0.5875875353813171
			],
			"type":"VEC3"
		},
		{
			"bufferView":33,
			"componentType":5126,
			"count":75,
			"type":"VEC3"
		},
		{
			"bufferView":34,
			"componentType":5126,
			"count":75,
			"type":"VEC2"
		},
		{
			"bufferView":35,
			"componentType":5123,
			"count":408,
			"type":"SCALAR"
		},
		{
			"bufferView":36,
			"componentType":5126,
			"count":49,
			"max":[
				1.3417330980300903,
				-1.0082703828811646,
				-1.6890958547592163
			],
			"min":[
				0.476187139749527,
				-1.4109467267990112,
				-2.3770956993103027
			],
			"type":"VEC3"
		},
		{
			"bufferView":37,
			"componentType":5126,
			"count":49,
			"type":"VEC3"
		},
		{
			"bufferView":38,
			"componentType":5126,
			"count":49,
			"type":"VEC2"
		},
		{
			"bufferView":39,
			"componentType":5123,
			"count":264,
			"type":"SCALAR"
		},
		{
			"bufferView":40,
			"componentType":5126,
			"count":49,
			"max":[
				-0.4775313436985016,
				-1.008458137512207,
				-1.6891041994094849
			],
			"min":[
				-1.3362058401107788,
				-1.4124380350112915,
				-2.3779172897338867
			],
			"type":"VEC3"
		},
		{
			"bufferView":41,
			"componentType":5126,
			"count":49,
			"type":"VEC3"
		},
		{
			"bufferView":42,
			"componentType":5126,
			"count":49,
			"type":"VEC2"
		},
		{
			"bufferView":43,
			"componentType":5123,
			"count":264,
			"type":"SCALAR"
		},
		{
			"bufferView":44,
			"componentType":5126,
			"count":75,
			"max":[
				-0.4396173655986786,
				-0.9776439666748047,
				1.3836839199066162
			],
			"min":[
				-1.365909457206726,
				-1.4221307039260864,
				0.5875918865203857
			],
			"type":"VEC3"
		},
		{
			"bufferView":45,
			"componentType":5126,
			"count":75,
			"type":"VEC3"
		},
		{
			"bufferView":46,
			"componentType":5126,
			"count":75,
			"type":"VEC2"
		},
		{
			"bufferView":47,
			"componentType":5123,
			"count":408,
			"type":"SCALAR"
		},
		{
			"bufferView":48,
			"componentType":5126,
			"count":51,
			"max":[
				1.3132820129394531,
				1.7699190378189087,
				1.3691470623016357
			],
			"min":[
				0.49919962882995605,
				1.0640772581100464,
				0.7450511455535889
			],
			"type":"VEC3"
		},
		{
			"bufferView":49,
			"componentType":5126,
			"count":51,
			"type":"VEC3"
		},
		{
			"bufferView":50,
			"componentType":5126,
			"count":51,
			"type":"VEC2"
		},
		{
			"bufferView":51,
			"componentType":5123,
			"count":276,
			"type":"SCALAR"
		}
	],
	"bufferViews":[
		{
			"buffer":0,
			"byteLength":2448,
			"byteOffset":0,
			"target":34962
		},
		{
			"buffer":0,
			"byteLength":2448,
			"byteOffset":2448,
			"target":34962
		},
		{
			"buffer":0,
			"byteLength":1632,
			"byteOffset":4896,
			"target":34962
		},
		{
			"buffer":0,
			"byteLength":1968,
			"byteOffset":6528,
			"target":34963
		},
		{
			"buffer":0,
			"byteLength":8412,
			"byteOffset":8496,
			"target":34962
		},
		{
			"buffer":0,
			"byteLength":8412,
			"byteOffset":16908,
			"target":34962
		},
		{
			"buffer":0,
			"byteLength":5608,
			"byteOffset":25320,
			"target":34962
		},
		{
			"buffer":0,
			"byteLength":8160,
			"byteOffset":30928,
			"target":34963
		},
		{
			"buffer":0,
			"byteLength":912,
			"byteOffset":39088,
			"target":34962
		},
		{
			"buffer":0,
			"byteLength":912,
			"byteOffset":40000,
			"target":34962
		},
		{
			"buffer":0,
			"byteLength":608,
			"byteOffset":40912,
			"target":34962
		},
		{
			"buffer":0,
			"byteLength":648,
			"byteOffset":41520,
			"target":34963
		},
		{
			"buffer":0,
			"byteLength":3264,
			"byteOffset":42168,
			"target":34962
		},
		{
			"buffer":0,
			"byteLength":3264,
			"byteOffset":45432,
			"target":34962
		},
		{
			"buffer":0,
			"byteLength":2176,
			"byteOffset":48696,
			"target":34962
		},
		{
			"buffer":0,
			"byteLength":2928,
			"byteOffset":50872,
			"target":34963
		},
		{
			"buffer":0,
			"byteLength":612,
			"byteOffset":53800,
			"target":34962
		},
		{
			"buffer":0,
			"byteLength":612,
			"byteOffset":54412,
			"target":34962
		},
		{
			"buffer":0,
			"byteLength":408,
			"byteOffset":55024,
			"target":34962
		},
		{
			"buffer":0,
			"byteLength":552,
			"byteOffset":55432,
			"target":34963
		},
		{
			"buffer":0,
			"byteLength":2148,
			"byteOffset":55984,
			"target":34962
		},
		{
			"buffer":0,
			"byteLength":2148,
			"byteOffset":58132,
			"target":34962
		},
		{
			"buffer":0,
			"byteLength":1432,
			"byteOffset":60280,
			"target":34962
		},
		{
			"buffer":0,
			"byteLength":1704,
			"byteOffset":61712,
			"target":34963
		},
		{
			"buffer":0,
			"byteLength":900,
			"byteOffset":63416,
			"target":34962
		},
		{
			"buffer":0,
			"byteLength":900,
			"byteOffset":64316,
			"target":34962
		},
		{
			"buffer":0,
			"byteLength":600,
			"byteOffset":65216,
			"target":34962
		},
		{
			"buffer":0,
			"byteLength":576,
			"byteOffset":65816,
			"target":34963
		},
		{
			"buffer":0,
			"byteLength":4008,
			"byteOffset":66392,
			"target":34962
		},
		{
			"buffer":0,
			"byteLength":4008,
			"byteOffset":70400,
			"target":34962
		},
		{
			"buffer":0,
			"byteLength":2672,
			"byteOffset":74408,
			"target":34962
		},
		{
			"buffer":0,
			"byteLength":3624,
			"byteOffset":77080,
			"target":34963
		},
		{
			"buffer":0,
			"byteLength":900,
			"byteOffset":80704,
			"target":34962
		},
		{
			"buffer":0,
			"byteLength":900,
			"byteOffset":81604,
			"target":34962
		},
		{
			"buffer":0,
			"byteLength":600,
			"byteOffset":82504,
			"target":34962
		},
		{
			"buffer":0,
			"byteLength":816,
			"byteOffset":83104,
			"target":34963
		},
		{
			"buffer":0,
			"byteLength":588,
			"byteOffset":83920,
			"target":34962
		},
		{
			"buffer":0,
			"byteLength":588,
			"byteOffset":84508,
			"target":34962
		},
		{
			"buffer":0,
			"byteLength":392,
			"byteOffset":85096,
			"target":34962
		},
		{
			"buffer":0,
			"byteLength":528,
			"byteOffset":85488,
			"target":34963
		},
		{
			"buffer":0,
			"byteLength":588,
			"byteOffset":86016,
			"target":34962
		},
		{
			"buffer":0,
			"byteLength":588,
			"byteOffset":86604,
			"target":34962
		},
		{
			"buffer":0,
			"byteLength":392,
			"byteOffset":87192,
			"target":34962
		},
		{
			"buffer":0,
			"byteLength":528,
			"byteOffset":87584,
			"target":34963
		},
		{
			"buffer":0,
			"byteLength":900,
			"byteOffset":88112,
			"target":34962
		},
		{
			"buffer":0,
			"byteLength":900,
			"byteOffset":89012,
			"target":34962
		},
		{
			"buffer":0,
			"byteLength":600,
			"byteOffset":89912,
			"target":34962
		},
		{
			"buffer":0,
			"byteLength":816,
			"byteOffset":90512,
			"target":34963
		},
		{
			"buffer":0,
			"byteLength":612,
			"byteOffset":91328,
			"target":34962
		},
		{
			"buffer":0,
			"byteLength":612,
			"byteOffset":91940,
			"target":34962
		},
		{
			"buffer":0,
			"byteLength":408,
			"byteOffset":92552,
			"target":34962
		},
		{
			"buffer":0,
			"byteLength":552,
			"byteOffset":92960,
			"target":34963
		}
	],
	"samplers":[
		{
			"magFilter":9729,
			"minFilter":9987
		}
	],
	"buffers":[
		{
			"byteLength":93512,
			"uri":"pigshatter3.bin"
		}
	]
}
