{
	"asset":{
		"generator":"Khronos glTF Blender I/O v4.5.47",
		"version":"2.0"
	},
	"extensionsUsed":[
		"KHR_materials_specular",
		"KHR_materials_ior"
	],
	"scene":0,
	"scenes":[
		{
			"name":"Scene",
			"nodes":[
				0,
				1,
				2
			]
		}
	],
	"nodes":[
		{
			"mesh":0,
			"name":"pig"
		},
		{
			"mesh":1,
			"name":"pig.001"
		},
		{
			"mesh":2,
			"name":"pig.002"
		}
	],
	"materials":[
		{
			"doubleSided":true,
			"extensions":{
				"KHR_materials_specular":{
					"specularColorFactor":[
						2.0,
						2.0,
						2.0
					]
				},
				"KHR_materials_ior":{
					"ior":1.4500000476837158
				}
			},
			"name":"body.001",
			"pbrMetallicRoughness":{
				"baseColorFactor":[
					0.8000000715255737,
					0.6253456473350525,
					0.2332630306482315,
					1
				],
				"metallicFactor":0,
				"roughnessFactor":0.36060604453086853
			}
		}
	],
	"meshes":[
		{
			"name":"Cube.004",
			"primitives":[
				{
					"attributes":{
						"POSITION":0,
						"NORMAL":1,
						"TEXCOORD_0":2
					},
					"indices":3,
					"material":0
				}
			]
		},
		{
			"name":"Cube.001",
			"primitives":[
				{
					"attributes":{
						"POSITION":4,
						"NORMAL":5,
						"TEXCOORD_0":6
					},
					"indices":7,
					"material":0
				}
			]
		},
		{
			"name":"Cube.002",
			"primitives":[
				{
					"attributes":{
						"POSITION":8,
						"NORMAL":9,
						"TEXCOORD_0":10
					},
					"indices":11,
					"material":0
				}
			]
		}
	],
	"accessors":[
		{
			"bufferView":0,
			"componentType":5126,
			"count":1460,
			"max":[
				1.9010422229766846,
				3.1873726844787598,
				1.7573105096817017
			],
			"min":[
				-1.9051499366760254,
				-0.004676999058574438,
				-0.9685384631156921
			],
			"type":"VEC3"
		},
		{
			"bufferView":1,
			"componentType":5126,
			"count":1460,
			"type":"VEC3"
		},
		{
			"bufferView":2,
			"componentType":5126,
			"count":1460,
			"type":"VEC2"
		},
		{
			"bufferView":3,
			"componentType":5123,
			"count":7056,
			"type":"SCALAR"
		},
		{
			"bufferView":4,
			"componentType":5126,
			"count":1992,
			"max":[
				1.3374077081680298,
				2.615565299987793,
				2.4677271842956543
			],
			"min":[
				-1.3399643898010254,
				0.5769108533859253,
				1.7073310613632202
			],
			"type":"VEC3"
		},
		{
			"bufferView":5,
			"componentType":5126,
			"count":1992,
			"type":"VEC3"
		},
		{
			"bufferView":6,
			"componentType":5126,
			"count":1992,
			"type":"VEC2"
		},
		{
			"bufferView":7,
			"componentType":5123,
			"count":8880,
			"type":"SCALAR"
		},
		{
			"bufferView":8,
			"componentType":5126,
			"count":1910,
			"max":[
				1.8665062189102173,
				3.167154312133789,
				-0.7548726201057434
			],
			"min":[
				-1.8705488443374634,
				0.005015648435801268,
				-3.0194618701934814
			],
			"type":"VEC3"
		},
		{
			"bufferView":9,
			"componentType":5126,
			"count":1910,
			"type":"VEC3"
		},
		{
			"bufferView":10,
			"componentType":5126,
			"count":1910,
			"type":"VEC2"
		},
		{
			"bufferView":11,
			"componentType":5123,
			"count":8784,
			"type":"SCALAR"
		}
	],
	"bufferViews":[
		{
			"buffer":0,
			"byteLength":17520,
			"byteOffset":0,
			"target":34962
		},
		{
			"buffer":0,
			"byteLength":17520,
			"byteOffset":17520,
			"target":34962
		},
		{
			"buffer":0,
			"byteLength":11680,
			"byteOffset":35040,
			"target":34962
		},
		{
			"buffer":0,
			"byteLength":14112,
			"byteOffset":46720,
			"target":34963
		},
		{
			"buffer":0,
			"byteLength":23904,
			"byteOffset":60832,
			"target":34962
		},
		{
			"buffer":0,
			"byteLength":23904,
			"byteOffset":84736,
			"target":34962
		},
		{
			"buffer":0,
			"byteLength":15936,
			"byteOffset":108640,
			"target":34962
		},
		{
			"buffer":0,
			"byteLength":17760,
			"byteOffset":124576,
			"target":34963
		},
		{
			"buffer":0,
			"byteLength":22920,
			"byteOffset":142336,
			"target":34962
		},
		{
			"buffer":0,
			"byteLength":22920,
			"byteOffset":165256,
			"target":34962
		},
		{
			"buffer":0,
			"byteLength":15280,
			"byteOffset":188176,
			"target":34962
		},
		{
			"buffer":0,
			"byteLength":17568,
			"byteOffset":203456,
			"target":34963
		}
	],
	"buffers":[
		{
			"byteLength":221024,
			"uri":"shatteredpig.bin"
		}
	]
}
